<svg xmlns="http://www.w3.org/2000/svg" width="512" height="512" fill="none"><g clip-path="url(#a)"><circle cx="256" cy="256" r="256" fill="#EEE"/><path fill="var(--flag-palette-bright-red, #d80027)" d="M341 14.4v483.2a256 256 0 0 1-170 0V14.4a256 256 0 0 1 170 0"/><path fill="var(--flag-palette-blue, #0052b4)" d="M497.6 341a256 256 0 0 0 0-170H14.4a256 256 0 0 0 0 170z"/><path fill="#EEE" d="m256 181 8.3 25.5H291l-21.7 15.8 8.3 25.5L256 232l-21.7 15.8 8.3-25.5-21.7-15.8h26.8zm47 76.2 8.2 25.5H338l-21.7 15.7 8.3 25.6-21.7-15.8-21.7 15.8 8.3-25.6-21.7-15.7h26.8zm-94 0 8.4 25.5h26.8l-21.7 15.7 8.3 25.6-21.7-15.8-21.7 15.8 8.3-25.6-21.7-15.7h26.8zM135.3 219l8.3 25.6h26.8l-21.7 15.8 8.3 25.5-21.7-15.8-21.7 15.8 8.3-25.5-21.7-15.8H127zm241.4 0 8.3 25.6h26.8l-21.7 15.8 8.3 25.5-21.7-15.8-21.7 15.8 8.3-25.5-21.7-15.8h26.8z"/></g><defs><clipPath id="a"><path fill="#fff" d="M0 0h512v512H0z"/></clipPath></defs></svg>