<svg xmlns="http://www.w3.org/2000/svg" width="512" height="512" fill="none"><path fill="#026" d="M512 256a256 256 0 1 1-512 0L256 0a256 256 0 0 1 256 256"/><path fill="#026" d="M256 0v256H0A256 256 0 0 1 256 0"/><path fill="#EEE" d="M217.6 256H256v-38.4L140.7 102.3H256V0A256 256 0 0 0 0 256h102.3V140.7z"/><path fill="var(--flag-palette-bright-red, #d80027)" d="M256 76.6V25.4H144.7A257 257 0 0 0 25.4 144.7V256h51.2V76.6z"/><path fill="var(--flag-palette-bright-red, #d80027)" d="M256 230.4V256L102.3 102.3h25.6z"/><path fill="#EEE" d="M400 185h-40a74 74 0 0 0-51 51v40a74 74 0 0 0 51 51h40a74 74 0 0 0 51-51v-40a74 74 0 0 0-51-51"/><path fill="var(--flag-palette-bright-red, #d80027)" d="M380 182a74 74 0 0 0-20 3v51h-51a74 74 0 0 0-3 20 74 74 0 0 0 3 20h51v51a74 74 0 0 0 20 3 74 74 0 0 0 20-3v-51h51a74 74 0 0 0 3-20 74 74 0 0 0-3-20h-51v-51a74 74 0 0 0-20-3"/><path fill="var(--flag-palette-yellow, #ffda44)" d="m380 295-3 8-8-4 4 8-8 3 8 3-4 8 8-4 3 8 3-8 8 4-4-8 8-3-8-3 4-8-8 4zm54-54-3 8-8-4 4 8-8 3 8 3-4 8 8-4 3 8 3-8 8 4-4-8 8-3-8-3 4-8-8 4zm-108 0-3 8-8-4 4 8-8 3 8 3-4 8 8-4 3 8 3-8 8 4-4-8 8-3-8-3 4-8-8 4zm54-54-3 8-8-4 4 8-8 3 8 3-4 8 8-4 3 8 3-8 8 4-4-8 8-3-8-3 4-8-8 4zm-10 52a7 7 0 0 0-6 6v5h-3v-2c0-3-3-6-6-6l-1 2v12l2 1h8a6 6 0 0 0 6 7v2h-3a5 5 0 0 0-5 6l1 1h12l2-1v-8l17-1v3h-3a5 5 0 0 0-5 5l1 2h13l1-2v-16c3 0 5-2 5-5 0-2-2-5-5-5h-16l-2-1 2-2h16v-3h-16a5 5 0 0 0-5 5c0 2 2 5 5 5h16l2 1-2 2h-18a6 6 0 0 1-6-7 7 7 0 0 0-7-6"/></svg>