<svg xmlns="http://www.w3.org/2000/svg" width="512" height="512" fill="none"><path fill="#026" d="M512 256a256 256 0 1 1-512 0L256 0a256 256 0 0 1 256 256"/><path fill="#026" d="M256 0v256H0A256 256 0 0 1 256 0"/><path fill="#EEE" d="M217.6 256H256v-38.4L140.7 102.3H256V0A256 256 0 0 0 0 256h102.3V140.7z"/><path fill="var(--flag-palette-bright-red, #d80027)" d="M256 76.6V25.4H144.7A257 257 0 0 0 25.4 144.7V256h51.2V76.6z"/><path fill="var(--flag-palette-bright-red, #d80027)" d="M256 230.4V256L102.3 102.3h25.6z"/><path fill="#EEE" d="M384 330a74 74 0 1 0 0-148 74 74 0 0 0 0 148"/><path fill="var(--flag-palette-light-blue, #338af3)" d="M407 322.1 384 312l-23 10.2 23-66.1zm0-132.2L384 200l-23-10.2 23 66.1zM318 279l10.1-23-10.2-23 66.1 23zm132.1 0-10-23 10.1-23-66 23z"/><path fill="var(--flag-palette-dark-yellow, #ffc635)" d="M379 228v5h-5v10h5v9.4a15.2 15.2 0 0 0-20.7 22.2v9.4H410v-9.4a15.2 15.2 0 0 0-20.7-22.2V243h5v-10h-5v-5z"/></svg>