<svg xmlns="http://www.w3.org/2000/svg" width="512" height="512" fill="none"><g clip-path="url(#a)"><path fill="var(--flag-palette-blue, #0052b4)" d="M37 388.6 256 416l219-27.4c23.5-38.7 37-84 37-132.6s-13.5-94-37-132.6L256 96 37 123.4C13.5 162 0 207.4 0 256s13.5 94 37 132.6"/><path fill="#333" fill-rule="evenodd" d="M449.3 88.2a257 257 0 0 1 28.5 39.8H34.2a257 257 0 0 1 28.5-39.8L256 64zM256 448 62.7 423.8A257 257 0 0 1 34.2 384h443.6a257 257 0 0 1-28.5 39.8z" clip-rule="evenodd"/><path fill="var(--flag-palette-dark-green, #496e2d)" fill-rule="evenodd" d="M256 0c80.8 0 153 37.5 199.9 96H56C103 37.5 175 0 255.9 0m0 512c80.8 0 153-37.5 199.9-96H56c47 58.5 119 96 199.9 96" clip-rule="evenodd"/><path fill="#EEE" d="M245 144c-106 32-101 112-67 186l-40 38 73-27v-98c24-35 66-35 90 0v98l73 27-40-38c34-74 39-154-67-186l-11 46zm11 83-9 27h-28l23 17-9 28 23-17 23 17-9-28 24-17h-29z"/></g><defs><clipPath id="a"><path fill="#fff" d="M0 0h512v512H0z"/></clipPath></defs></svg>