<svg xmlns="http://www.w3.org/2000/svg" width="512" height="512" fill="none"><circle cx="256" cy="256" r="256" fill="var(--flag-palette-light-blue, #338af3)"/><path fill="var(--flag-palette-yellow, #ffda44)" fill-rule="evenodd" d="M25.7 368q-6.8-14-11.9-28.8h484.4q-5.1 14.8-12 28.8zm38.5 57.6a257 257 0 0 1-22-28.8h427.6a257 257 0 0 1-22 28.8z" clip-rule="evenodd"/><path fill="#EEE" d="m124 176.9-60-26.5 60-26.5L150.3 64l26.5 60 59.9 26.4-60 26.5-26.4 59.9z"/><path fill="var(--flag-palette-bright-red, #d80027)" d="m150.4 97 16.3 37 37 16.4-37 16.3-16.3 37-16.3-37-37-16.3 37-16.3z"/></svg>