<svg xmlns="http://www.w3.org/2000/svg" width="512" height="512" fill="none"><g clip-path="url(#a)"><g clip-path="url(#b)"><path fill="var(--flag-palette-blue, #0052b4)" d="M437 75 224 224 75 437a256 256 0 0 0 437-178.2v-5.7A255 255 0 0 0 437 75"/><path fill="#EEE" d="M437 75 75 437A256 256 0 0 1 437 75"/></g><path fill="var(--flag-palette-yellow, #ffda44)" fill-rule="evenodd" d="M.7 275.3Q0 265.7 0 256A256 256 0 0 1 275.3.7z" clip-rule="evenodd"/><path fill="#333" fill-rule="evenodd" d="m287 197-20 11a71 71 0 0 1-59 59l-11 20-11-20a71 71 0 0 1-59-59l-20-11 20-10.9a71 71 0 0 1 59-59l11-20 11 20a71 71 0 0 1 59 59zm-90 60a60 60 0 1 1 0-120 60 60 0 0 1 0 120" clip-rule="evenodd"/><path fill="var(--flag-palette-bright-red, #d80027)" d="m196.9 163.6 9.7 16.7h19.3l-9.6 16.7 9.6 16.7h-19.3l-9.6 16.7-9.7-16.7h-19.2l9.6-16.7-9.6-16.7h19.2z"/></g><defs><clipPath id="a"><path fill="#fff" d="M0 0h512v512H0z"/></clipPath><clipPath id="b"><path fill="#fff" d="M0 0h512v512H0z"/></clipPath></defs></svg>