<svg xmlns="http://www.w3.org/2000/svg" width="512" height="512" fill="none"><g clip-path="url(#a)"><circle cx="256" cy="257" r="256" fill="var(--flag-palette-blue, #0052b4)"/><path fill="var(--flag-palette-bright-red, #d80027)" fill-rule="evenodd" d="M256 481a224 224 0 1 0 0-448 224 224 0 0 0 0 448m0 32a256 256 0 1 0 0-512 256 256 0 0 0 0 512" clip-rule="evenodd"/><path fill="#EEE" d="m100.2 256.1 155.8-98 155.8 98-155.8 98z"/><path fill="var(--flag-palette-dark-green, #496e2d)" d="M167 300.6h200.3l-44.5-66.8-22.3 22.3-22.2-11-22.3 33.3h-44.5l-22.3-22.3z"/><path fill="var(--flag-palette-dark-yellow, #ffc635)" d="m256 189.3 5.5 17h18l-14.6 10.5 5.6 17-14.5-10.5-14.5 10.5 5.6-17-14.5-10.5h17.9z"/><path fill="var(--flag-palette-bright-red, #d80027)" fill-rule="evenodd" d="M416.4 240.1 272 149.3V16h-32v133.3L95.6 240H0v32h95.6L240 362.9v133.3h32V362.9l144.4-90.8H512v-32zm-286.1 16L256 335.2l125.8-79.1L256 177z" clip-rule="evenodd"/></g><defs><clipPath id="a"><path fill="#fff" d="M0 0h512v512H0z"/></clipPath></defs></svg>