<svg xmlns="http://www.w3.org/2000/svg" width="512" height="512" fill="none"><g clip-path="url(#a)"><circle cx="256" cy="256" r="256" fill="#EEE"/><path fill="var(--flag-palette-blue, #0052b4)" fill-rule="evenodd" d="M4.4 303.7a257 257 0 0 1-4-34.6c10.4 0 15.7 5 21 9.8s10.6 9.7 21.3 9.7 16-4.9 21.4-9.8c5.3-4.8 10.7-9.7 21.3-9.7s16 4.9 21.3 9.8c5.4 4.8 10.8 9.7 21.4 9.7 10.7 0 16-4.9 21.3-9.7 5.3-5 10.7-9.8 21.3-9.8s16 4.9 21.4 9.8c5.3 4.8 10.7 9.7 21.3 9.7s16-4.9 21.3-9.7c5.3-5 10.7-9.8 21.4-9.8s16 4.9 21.4 9.8c5.3 4.8 10.7 9.7 21.3 9.7s16-4.9 21.3-9.7c5.3-5 10.7-9.8 21.4-9.8s16 4.9 21.3 9.8c5.3 4.8 10.6 9.7 21.3 9.7s16-4.9 21.4-9.8c5.3-4.8 10.7-9.7 21.3-9.7s16 4.9 21.3 9.8c5.4 4.8 10.8 9.7 21.4 9.7 10.7 0 16-4.9 21.3-9.8 5.3-4.8 10.5-9.6 20.9-9.7q-1 17.7-4.1 34.6c-7.8 1.2-12.2 5.3-16.7 9.4-5.3 5-10.7 9.8-21.4 9.8s-16-4.9-21.4-9.8c-5.3-4.8-10.7-9.7-21.3-9.7s-16 4.9-21.3 9.7c-5.3 5-10.7 9.8-21.4 9.8s-16-4.9-21.3-9.7c-5.3-5-10.7-9.8-21.3-9.8s-16 4.9-21.4 9.8c-5.3 4.8-10.7 9.7-21.3 9.7s-16-4.9-21.3-9.7c-5.3-5-10.7-9.8-21.4-9.8s-16 4.9-21.4 9.8c-5.3 4.8-10.7 9.7-21.3 9.7s-16-4.9-21.3-9.7c-5.3-5-10.7-9.8-21.4-9.8s-16 4.9-21.2 9.7c-5.4 5-10.7 9.8-21.4 9.8s-16-4.9-21.4-9.8c-5.3-4.8-10.7-9.7-21.3-9.7s-16 4.9-21.3 9.7c-5.3 5-10.7 9.8-21.4 9.8s-16-4.9-21.3-9.7c-4.5-4.2-9.1-8.4-17-9.5M37.2 389A255 255 0 0 1 14 339.4q4.1 2.7 7.6 6c5.3 5 10.7 9.8 21.3 9.8s16-4.9 21.3-9.7c5.3-5 10.7-9.8 21.4-9.8s16 4.9 21.3 9.8c5.3 4.8 10.7 9.7 21.3 9.7s16-4.9 21.4-9.8c5.3-4.8 10.7-9.7 21.3-9.7s16 4.9 21.3 9.8c5.4 4.8 10.8 9.7 21.4 9.7 10.7 0 16-4.9 21.3-9.7 5.3-5 10.6-9.8 21.3-9.8s16 4.9 21.4 9.8c5.3 4.8 10.7 9.7 21.3 9.7s16-4.9 21.3-9.7c5.3-5 10.7-9.8 21.4-9.8s16 4.9 21.4 9.8c5.3 4.8 10.7 9.7 21.3 9.7s16-4.9 21.3-9.7c5.3-5 10.7-9.8 21.4-9.8s16 4.9 21.3 9.8c5.3 4.8 10.7 9.7 21.3 9.7s16-4.9 21.4-9.8q3.2-3 7.1-5.8-9 26.2-23.3 49.5a30 30 0 0 1-5.2.4c-10.6 0-16-4.9-21.3-9.7-5.3-5-10.6-9.8-21.3-9.8s-16 4.9-21.4 9.8c-5.3 4.8-10.7 9.7-21.3 9.7s-16-4.9-21.3-9.7c-5.3-5-10.7-9.8-21.4-9.8s-16 4.9-21.4 9.8c-5.3 4.8-10.7 9.7-21.3 9.7s-16-4.9-21.3-9.7c-5.3-5-10.7-9.8-21.4-9.8s-16 4.9-21.2 9.7c-5.4 5-10.7 9.8-21.4 9.8s-16-4.9-21.4-9.8c-5.3-4.8-10.7-9.7-21.3-9.7s-16 4.9-21.3 9.7c-5.3 5-10.7 9.8-21.4 9.8s-16-4.9-21.3-9.7c-5.3-5-10.7-9.8-21.3-9.8s-16 4.9-21.4 9.8c-5.3 4.8-10.7 9.7-21.3 9.7q-3 0-5.6-.5M181 500.8c-49-15-91.6-44.2-123.2-83a58 58 0 0 0 6.4-5.3c5.3-4.8 10.7-9.7 21.3-9.7s16 4.9 21.3 9.8c5.4 4.8 10.8 9.7 21.4 9.7 10.7 0 16-4.9 21.3-9.7 5.3-5 10.7-9.8 21.3-9.8s16 4.9 21.4 9.8c5.3 4.8 10.7 9.7 21.3 9.7s16-4.9 21.3-9.7c5.3-5 10.7-9.8 21.4-9.8s16 4.9 21.4 9.8c5.3 4.8 10.7 9.7 21.3 9.7s16-4.9 21.3-9.7c5.3-5 10.7-9.8 21.4-9.8s16 4.9 21.3 9.8c5.3 4.8 10.6 9.7 21.3 9.7s16-4.9 21.4-9.8c5.3-4.8 10.7-9.7 21.3-9.7s16 4.9 21.3 9.8q3 2.8 6.3 5.2a256 256 0 0 1-121.8 82.5l-71.9-9.6z" clip-rule="evenodd"/><path fill="var(--flag-palette-dark-yellow, #ffc635)" fill-rule="evenodd" d="M138.5 483.5q6.6-3.2 13.3-6l-37.7-68.7 77.8 14.9 10-78.7 54.2 58 54.2-58 9.9 78.8 77.9-15-37.7 68.7q6.6 2.8 13.1 6A255 255 0 0 1 256 512a255 255 0 0 1-117.5-28.5" clip-rule="evenodd"/><g fill-rule="evenodd" clip-path="url(#b)" clip-rule="evenodd"><path fill="var(--flag-palette-blue, #0052b4)" d="M512 256a256 256 0 1 0-512 0z"/><path fill="#EEE" d="M502.2 326.2q-8.7 30.7-24.4 57.8H464L320 240v144H192V240L48 384H34.2a255 255 0 0 1-24.4-57.8L144 192H8A256 256 0 0 1 86.8 64H144l-24.6-24.6a256 256 0 0 1 273.2 0L368 64h57.3A256 256 0 0 1 504 192H368z"/><path fill="var(--flag-palette-bright-red, #d80027)" d="M493.4 160a256 256 0 0 0-37.5-64H288V2a259 259 0 0 0-64 0v94H56.1a256 256 0 0 0-37.5 64H224v224h64V160zm5 178.4L352 192h-32l169.4 169.4q5.1-11.2 9-23m-465 44.2L192 224v-32L22.6 361.4q5 10.8 10.8 21.2m96-349.2L160 64h32l-41.4-41.4q-10.8 5-21.2 10.8m209-19.8L320 32v32l41.4-41.4q-11.2-5.1-23-9"/></g><path fill="var(--flag-palette-dark-yellow, #ffc635)" fill-rule="evenodd" d="M181 88v80h150V88h-37.5H331l-18.7 43.3L293.5 88l-18.7 43.3L256 88l-18.7 43.3L218.5 88l-18.7 43.3zm99.1 0H256zm-37.5 0h-24.1z" clip-rule="evenodd"/></g><defs><clipPath id="a"><path fill="#fff" d="M0 0h512v512H0z"/></clipPath><clipPath id="b"><path fill="#fff" d="M0 0h512v256H0z"/></clipPath></defs></svg>