<svg xmlns="http://www.w3.org/2000/svg" width="512" height="512" fill="none"><g clip-path="url(#a)"><circle cx="256" cy="256" r="256" fill="#EEE"/><path fill="var(--flag-palette-bright-red, #d80027)" d="M288 2q-15.5-2-31.5-2h-1q-16 0-31.5 2v222H2a259 259 0 0 0 0 64h222v222a259 259 0 0 0 64 0V288h222a258 258 0 0 0 0-64H288z"/><path fill="var(--flag-palette-bright-red, #d80027)" d="M0 245.6A256 256 0 0 1 256 0v256H0z"/><path fill="var(--flag-palette-yellow, #ffda44)" fill-rule="evenodd" d="M103.6 50.3A22 22 0 0 0 124 63.2h58c3 0 6-2 6-5s-3-5-6-5h-54c-6 0-11.8-4.4-14.5-9.9l9.5-6c0 3 2 4.9 5 4.9h54c9 0 16 7 16 16s-7 16-16 16v55c0 2-2 4-4 4h-42c-2 0-4-2-4-4 0-10 8-18 18-18h9v-9h-57v28c0 3-2 5-5 5H56c-3 0-5-2-5-5 0-10 8-18 19-18h8v-9A21 21 0 0 1 59.4 92Q79 68.5 103.6 50.3m29.8-19.1a255 255 0 0 1 20.4-10H182v10zM63.7 160.9a23 23 0 0 1 16.3-6.7 23 23 0 0 1 22 23c0 12 10 21 22 21h58c3 0 6-2 6-5s-3-5-6-5h-54c-8 0-16-8-16-16 0-9 8-16 16-16h54v10h-54c-3 0-5 3-5 6s2 5 5 5h54c9 0 16 7 16 16s-7 16-16 16v55c0 2-2 4-4 4h-42c-2 0-4-2-4-4 0-10 8-18 18-18h9v-9h-57v28c0 3-2 5-5 5H56c-3 0-5-2-5-5 0-10 8-18 19-18h8v-9a21 21 0 0 1-21-22H30c-2 0-4-2-4-4v-42c0-2 2-4 4-4 10 0 18 8 18 18v9h9v-16a23 23 0 0 1 6.7-16.3" clip-rule="evenodd"/></g><defs><clipPath id="a"><path fill="#fff" d="M0 0h512v512H0z"/></clipPath></defs></svg>