<svg xmlns="http://www.w3.org/2000/svg" width="512" height="512" fill="none"><g clip-path="url(#a)"><path fill="#EEE" fill-rule="evenodd" d="M376.1 482.1A256 256 0 0 0 512 256l-22.4-104.8A256 256 0 0 0 256 0L140.5 27.8h-.5A256 256 0 0 0 0 256l30 116.1-.6 3A256 256 0 0 0 256 512l117.3-30.5z" clip-rule="evenodd"/><path fill="#333" fill-rule="evenodd" d="M437 75a255 255 0 0 1 75 181H256zM256 0v256L75 75A255 255 0 0 1 256 0M0 256h256L75 437A255 255 0 0 1 0 256m256 256V256l181 181a255 255 0 0 1-181 75" clip-rule="evenodd"/><path fill="var(--flag-palette-dark-yellow, #ffc635)" d="m167 178 89 11.2 89-11.1v-53.4l-35.6 17.8L256 89l-53.4 53.5-35.6-17.8z"/><path fill="var(--flag-palette-bright-red, #d80027)" d="M256 389.6c-49.1 0-89-40-89-89v-89.1l33.3-33.4h111.4l33.3 33.4v89a89 89 0 0 1-89 89z"/><path fill="#EEE" d="M256 356.2c-30.7 0-55.7-25-55.7-55.7v-89h111.4v89c0 30.7-25 55.7-55.7 55.7"/><path fill="var(--flag-palette-dark-yellow, #ffc635)" d="M167 178h33.3v33.5H167zm144.7 0H345v33.5h-33.3zm0 72.4H345v33.4h-33.3zm-144.7 0h33.3v33.4H167zm89 105.8q-8.7-.1-16.7-2.6V388a89 89 0 0 0 33.4 0v-34.4q-8.1 2.6-16.7 2.6m-55-46.6-26.6 26.6a89 89 0 0 0 19.4 28l23.6-23.7a56 56 0 0 1-16.3-31zm136.6 26.6-26.7-26.6c-2 12-7.8 22.8-16.3 31l23.6 23.5q12.4-12 19.4-27.9"/><path fill="var(--flag-palette-blue, #0052b4)" d="M244.9 230v18.6a11.1 11.1 0 1 0 22.2 0V230zm0 74.2v18.6a11.1 11.1 0 1 0 22.2 0v-18.6zm33.4-37v18.5a11.1 11.1 0 1 0 22.2 0V267h-22.2zm-33.4 0v18.5a11.1 11.1 0 1 0 22.2 0V267H245zm-33.4 0v18.5a11.1 11.1 0 1 0 22.2 0V267h-22.2z"/></g><defs><clipPath id="a"><path fill="#fff" d="M0 0h512v512H0z"/></clipPath></defs></svg>