<svg xmlns="http://www.w3.org/2000/svg" width="512" height="512" fill="none"><g clip-path="url(#a)"><circle cx="256" cy="256" r="256" fill="var(--flag-palette-light-blue, #338af3)"/><path fill="#EEE" fill-rule="evenodd" d="M490 360a256 256 0 0 0 0-208H22a258 258 0 0 0 0 208z" clip-rule="evenodd"/><path fill="#333" fill-rule="evenodd" d="M499.3 176q5 15.6 8.2 32H4.5q3-16.4 8.2-32z" clip-rule="evenodd"/><path fill="var(--flag-palette-bright-red, #d80027)" fill-rule="evenodd" d="M12.7 336q-5-15.5-8.2-32h503q-3 16.5-8.2 32z" clip-rule="evenodd"/><path fill="var(--flag-palette-green, #6da544)" fill-rule="evenodd" d="M507.5 304a257 257 0 0 0 0-96H4.5a257 257 0 0 0 0 96z" clip-rule="evenodd"/><path fill="var(--flag-palette-yellow, #ffda44)" fill-rule="evenodd" d="M510 288a258 258 0 0 0 0-64H2a259 259 0 0 0 0 64z" clip-rule="evenodd"/><path fill="#EEE" fill-rule="evenodd" d="M304.3 290a64 64 0 1 0-96.6 0L178 301v27h156v-27z" clip-rule="evenodd"/><path fill="var(--flag-palette-green, #6da544)" fill-rule="evenodd" d="M230.4 225.6a34 34 0 0 1 16.8-10.4l-4.1-15.5a50 50 0 0 0-12.1 91.6l8-13.9a34 34 0 0 1-8.6-51.8m51.2 0a34 34 0 0 0-16.8-10.4l4.1-15.5a50 50 0 0 1 12.1 91.6l-8-13.9a34 34 0 0 0 8.6-51.8" clip-rule="evenodd"/><circle cx="256" cy="248" r="24" fill="var(--flag-palette-dark-yellow, #ffc635)"/></g><defs><clipPath id="a"><path fill="#fff" d="M0 0h512v512H0z"/></clipPath></defs></svg>