<svg xmlns="http://www.w3.org/2000/svg" width="512" height="512" fill="none"><g clip-path="url(#a)"><g clip-path="url(#b)"><path fill="#EEE" d="m75 75 149 213 213 149A256 256 0 0 0 258.8 0h-5.7A255 255 0 0 0 75 75"/><path fill="#EEE" d="m75 75 362 362A256 256 0 0 1 75 75"/><path fill="var(--flag-palette-light-blue, #338af3)" d="M45.8 109.8a256 256 0 0 1 64-64l356.4 356.4q-26.3 37.7-64 64z"/></g><path fill="var(--flag-palette-dark-yellow, #ffc635)" d="m211 181 46 16.4 44-16.4v-38l-18 9-27-27-27 27-18-9z"/><path fill="var(--flag-palette-blue, #0052b4)" d="M186 181v103a70 70 0 1 0 140 0V181z"/></g><defs><clipPath id="a"><path fill="#fff" d="M0 0h512v512H0z"/></clipPath><clipPath id="b"><path fill="#fff" d="M0 512V0h512v512z"/></clipPath></defs></svg>