<svg xmlns="http://www.w3.org/2000/svg" width="512" height="512" fill="none"><g clip-path="url(#a)"><path fill="#EEE" d="M482.2 376c19-35.8 29.8-76.6 29.8-120s-10.8-84.2-29.8-120H29.8A255 255 0 0 0 0 256c0 43.4 10.8 84.2 29.8 120z"/><path fill="#333" d="M496.5 344a256.1 256.1 0 0 1-481 0z"/><path fill="var(--flag-palette-bright-red, #d80027)" d="M496.5 168h-481a256.1 256.1 0 0 1 481 0"/><path fill="var(--flag-palette-green, #6da544)" d="M232.6 294.2c0 25-26 42-26 42h98s-26-17-26-42z"/><path fill="var(--flag-palette-dark-green, #496e2d)" d="M255.6 176.2c-9 0-17 4-23 10a32 32 0 0 0-48 24 32 32 0 0 0 2 59 32 32 0 0 0 46 25c6 6 14 10 23 10s17-4 23-10c4 3 9 4 14 4 17 0 31-13 32-29a32 32 0 0 0 2-59 32 32 0 0 0-48-24c-6-6-14-10-23-10"/></g><defs><clipPath id="a"><path fill="#fff" d="M0 0h512v512H0z"/></clipPath></defs></svg>