<svg xmlns="http://www.w3.org/2000/svg" width="512" height="512" fill="none"><g clip-path="url(#a)"><path fill="#EEE" d="M482.2 376c19-35.8 29.8-76.6 29.8-120s-10.8-84.2-29.8-120H29.8A255 255 0 0 0 0 256c0 43.4 10.8 84.2 29.8 120z"/><path fill="var(--flag-palette-bright-red, #d80027)" d="M496.5 344a256.1 256.1 0 0 1-481 0z"/><path fill="var(--flag-palette-dark-green, #496e2d)" d="M496.5 168h-481a256.1 256.1 0 0 1 481 0"/><path fill="var(--flag-palette-light-blue, #338af3)" d="M0 245.6A255 255 0 0 1 74.9 74.9L256 256 74.9 437.1A255 255 0 0 1 0 266.4z"/><g clip-path="url(#b)"><path fill="#EEE" d="m196.9 256-68 22.1v71.5l-42-57.8-68.1 22 42-57.8-42-57.9 68 22.1 42-57.8v71.5z"/></g></g><defs><clipPath id="a"><path fill="#fff" d="M0 0h512v512H0z"/></clipPath><clipPath id="b"><path fill="#fff" d="M0 0h512v512H0z"/></clipPath></defs></svg>