<svg xmlns="http://www.w3.org/2000/svg" width="512" height="512" fill="none"><g clip-path="url(#a)"><circle cx="256" cy="257" r="256" fill="var(--flag-palette-green, #6da544)"/><path fill="var(--flag-palette-blue, #0052b4)" fill-rule="evenodd" d="M75.5 75.5a257 257 0 0 0-51 72L64 256 24.1 365.6a257 257 0 0 0 50.4 72L256 256z" clip-rule="evenodd"/><path fill="#EEE" fill-rule="evenodd" d="M12.3 178.4q10.2-31.3 27.5-58.6L176 256 39 393a255 255 0 0 1-27-58.8L64 256z" clip-rule="evenodd"/><path fill="var(--flag-palette-bright-red, #d80027)" fill-rule="evenodd" d="M13.3 338.7a256 256 0 0 1 .5-164.9L96 256z" clip-rule="evenodd"/><path fill="var(--flag-palette-yellow, #ffda44)" d="m384 182 16.6 51.2h53.7l-43.4 31.5 16.5 51.1-43.4-31.6-43.4 31.6 16.5-51-43.4-31.6h53.7z"/></g><defs><clipPath id="a"><path fill="#fff" d="M0 0h512v512H0z"/></clipPath></defs></svg>