<svg xmlns="http://www.w3.org/2000/svg" width="512" height="512" fill="none"><g clip-path="url(#a)"><path fill="var(--flag-palette-blue, #0052b4)" d="M482.2 376c19-35.8 29.8-76.6 29.8-120s-10.8-84.2-29.8-120H29.8A255 255 0 0 0 0 256c0 43.4 10.8 84.2 29.8 120z"/><path fill="var(--flag-palette-bright-red, #d80027)" d="M496.5 344a256.1 256.1 0 0 1-481 0z"/><path fill="var(--flag-palette-dark-green, #496e2d)" d="M496.5 168h-481a256.1 256.1 0 0 1 481 0"/><path fill="#EEE" fill-rule="evenodd" d="M493.4 160q6.3 15.5 10.5 32H8.1a254 254 0 0 1 10.5-32zm0 192q6.3-15.5 10.5-32H8.1a254 254 0 0 0 10.5 32z" clip-rule="evenodd"/><path fill="#EEE" d="m312 317 104-75H288l104 75-40-122zm-203-32 49-36H98l49 36-19-58zm64 32 49-36h-60l49 36-19-58zm0-64 49-36h-60l49 36-19-58z"/></g><defs><clipPath id="a"><path fill="#fff" d="M0 0h512v512H0z"/></clipPath></defs></svg>