<svg xmlns="http://www.w3.org/2000/svg" width="512" height="512" fill="none"><path fill="#026" d="M512 256a256 256 0 1 1-512 0L256 0a256 256 0 0 1 256 256"/><path fill="#026" d="M256 0v256H0A256 256 0 0 1 256 0"/><path fill="#EEE" d="M217.6 256H256v-38.4L140.7 102.3H256V0A256 256 0 0 0 0 256h102.3V140.7z"/><path fill="var(--flag-palette-bright-red, #d80027)" d="M256 76.6V25.4H144.7A257 257 0 0 0 25.4 144.7V256h51.2V76.6z"/><path fill="var(--flag-palette-bright-red, #d80027)" d="M256 230.4V256L102.3 102.3h25.6z"/><path fill="var(--flag-palette-light-blue, #338af3)" d="M306 144.7V267c0 59.7 78 78 78 78s78-18.3 78-78V144.7z"/><path fill="var(--flag-palette-light-grey, #f3f3f3)" d="M384 236c-19.5 0-19.5 17.8-39 17.8-19.4 0-19.4-17.8-39-17.8v31.2c19.6 0 19.6 17.8 39 17.8 19.5 0 19.5-17.8 39-17.8s19.5 17.8 39 17.8c19.4 0 19.4-17.8 39-17.8V236c-19.6 0-19.6 17.8-39 17.8-19.5 0-19.5-17.8-39-17.8m0-62.4c-19.5 0-19.5 17.8-39 17.8-19.4 0-19.4-17.8-39-17.8v31.2c19.6 0 19.6 17.8 39 17.8 19.5 0 19.5-17.8 39-17.8s19.5 17.8 39 17.8c19.4 0 19.4-17.8 39-17.8v-31.2c-19.6 0-19.6 17.8-39 17.8-19.5 0-19.5-17.8-39-17.8"/><path fill="var(--flag-palette-dark-yellow, #ffc635)" fill-rule="evenodd" d="m296.7 348.4 11.4 6 .6.2-1.4 2.9-1.2 2.8 2.8 1.3a183 183 0 0 0 150.3 0l2.8-1.3-1.3-2.8-1.3-3 .6-.2a178 178 0 0 0 11.4-6l4.6-2.6-4.6-2.7-9.5-6q-.2-6.2-.7-12.2l-.4-4.8-4.2 2.4a149 149 0 0 1-11.7 6l-6.2 2.8 1.8 4.9a151 151 0 0 1-113.2-.1l2-4.8-6.1-2.8q-6-2.7-11.7-6l-4.2-2.4-.4 4.9-.6 12q-4.7 3.3-9.6 6l-4.7 2.8z" clip-rule="evenodd"/></svg>