<svg xmlns="http://www.w3.org/2000/svg" width="512" height="512" fill="none"><g clip-path="url(#a)"><circle cx="256" cy="256" r="256" fill="var(--flag-palette-green, #6da544)"/><path fill="#EEE" fill-rule="evenodd" d="M509.4 292.6a258 258 0 0 0 0-73.2H2.6a258 258 0 0 0 0 73.2zm-22 73.1H24.6c13 27.4 30.8 52.1 52.2 73.1h358.4c21.4-21 39.2-45.7 52.2-73.1M24.6 146.3h462.8A257 257 0 0 0 435.2 73H76.8a257 257 0 0 0-52.2 73.2" clip-rule="evenodd"/><path fill="var(--flag-palette-bright-red, #d80027)" fill-rule="evenodd" d="M2.6 219.4A256 256 0 0 1 256 0v219.4z" clip-rule="evenodd"/><path fill="#EEE" d="m128.6 187.7-11.1-22.3v-44.5l27.8-22.3 27.8 22.3v33.4l11.2-11.2v22.3L162 187.7zm-59.9-68.3 3 9h9.5l-7.7 5.7 3 9-7.8-5.6-7.7 5.6 3-9-7.7-5.6h9.5zM91 97.1l3 9.1h9.5l-7.7 5.6 3 9-7.8-5.5-7.7 5.6 3-9-7.8-5.7H88zm22.3-22.2 2.9 9h9.5l-7.7 5.7 3 9-7.7-5.6-7.8 5.6 3-9-7.7-5.7h9.5zm108.6 44.5-3 9h-9.5l7.7 5.7-3 9 7.8-5.6 7.7 5.6-3-9 7.7-5.6h-9.5zm-22.3-22.3-3 9.1h-9.5l7.7 5.6-3 9 7.8-5.5 7.7 5.6-3-9 7.8-5.7h-9.6zm-22.3-22.2-3 9h-9.4l7.7 5.7-3 9 7.7-5.6 7.8 5.6-3-9 7.7-5.7h-9.5zm-32-11.2-3 9.1h-9.5l7.8 5.6-3 9 7.8-5.5 7.7 5.6-3-9 7.8-5.7h-9.6z"/></g><defs><clipPath id="a"><path fill="#fff" d="M0 0h512v512H0z"/></clipPath></defs></svg>