<svg xmlns="http://www.w3.org/2000/svg" width="512" height="512" fill="none"><circle cx="256" cy="256" r="256" fill="#EEE"/><path fill="var(--flag-palette-bright-red, #d80027)" d="M288 2q-15.5-2-31.5-2h-1q-16 0-31.5 2v222H2a259 259 0 0 0 0 64h222v222a259 259 0 0 0 64 0V288h222a258 258 0 0 0 0-64H288z"/><path fill="var(--flag-palette-yellow, #ffda44)" d="m328.3 267.1 16.7 11.2v-44.6L328.3 245h-61.2v-61.2l11.2-16.7h-44.6l11.2 16.7V245h-61.2L167 233.7v44.6l16.7-11.2h61.2v61.2L233.7 345h44.6L267 328.3v-61.2z"/></svg>