<svg xmlns="http://www.w3.org/2000/svg" width="512" height="512" fill="none"><g clip-path="url(#a)"><circle cx="256" cy="256" r="256" fill="var(--flag-palette-bright-red, #d80027)"/><path fill="var(--flag-palette-yellow, #ffda44)" d="M256 256a112 112 0 1 0 0 224 112 112 0 0 0 0-224M228.3 42v32l-27.7 16 27.7 16v32l27.7-16 27.7 16v-32l27.7-16-27.7-16V42L256 58z"/><path fill="var(--flag-palette-yellow, #ffda44)" fill-rule="evenodd" d="M450.4 89.5 450 93l1.8-1.9a257 257 0 0 1 23.5 32.8L463 141l34 34-54 15 19-18-24-17-24 17 19 18-54-15 34-34-13-18-12 26-5-27 14-17-12-33 10-21 7-5.3q4.5 3 8.8 6.4L403 69l23 24-3-24 2.8-4.6q13.2 11.8 24.6 25m30.5 44q3.8 7.2 7.3 14.5l-.2 1zM396.7 470A257 257 0 0 0 490 360l-9-18.9-25-19 17 37-23 24 3-24-15-25-15 25 3 24-23-24 17-37-25 19-10 21 28 69-34 34zM101.2 52l8.8-6.3 7 5.3 10 21-12 33 14 17-5 27-12-26-13 18 34 34-54 15 19-18-24-17-24 17 19 18-54-15 34-34-12.3-17q10.5-17.6 23.5-33l1.8 2-.4-3.5Q73 76 86.2 64.4L89 69l-3 24 23-24zm14.1 418A257 257 0 0 1 22 360l9-19 25-19-17 37 23 24-3-24 15-25 15 25-3 24 23-24-17-37 25 19 10 21-28 69 34 34zM23.8 148q3.5-7.3 7.3-14.5L24 149z" clip-rule="evenodd"/></g><defs><clipPath id="a"><path fill="#fff" d="M0 0h512v512H0z"/></clipPath></defs></svg>