<svg xmlns="http://www.w3.org/2000/svg" width="512" height="512" fill="none"><g fill-rule="evenodd" clip-path="url(#a)" clip-rule="evenodd"><path fill="var(--flag-palette-bright-red, #d80027)" d="M441.3 79.4 256 96 70.7 79.4A255 255 0 0 1 256 0c72.9 0 138.7 30.5 185.3 79.4"/><path fill="#EEE" d="M488.2 148.1 256 169 23.8 148.1A257 257 0 0 1 77 73h358a257 257 0 0 1 53.2 75.1"/><path fill="#333" d="M509.4 219.2 256 242 2.6 219.2A254 254 0 0 1 24.8 146h462.4a254 254 0 0 1 22.2 73.2"/><path fill="var(--flag-palette-yellow, #ffda44)" d="M509.3 293.2a258 258 0 0 0 0-74.2H2.7a258 258 0 0 0 0 74.2L256 315z"/><path fill="var(--flag-palette-purple, #4a1f63)" d="M25.9 368.3A254 254 0 0 1 2.7 293h506.6q-5.9 40.2-23.2 75.3L256 389z"/><path fill="var(--flag-palette-light-blue, #338af3)" d="M85.1 446.7A257 257 0 0 1 24.8 366h462.4a257 257 0 0 1-60.3 80.6L256 462z"/><path fill="var(--flag-palette-green, #6da544)" d="M435 439a255 255 0 0 1-179 73 255 255 0 0 1-179-73z"/></g><defs><clipPath id="a"><path fill="#fff" d="M0 0h512v512H0z"/></clipPath></defs></svg>