<svg xmlns="http://www.w3.org/2000/svg" width="512" height="512" fill="none"><g clip-path="url(#a)"><path fill="#EEE" d="M512 256a256 256 0 1 1-512 0L256 0a256 256 0 0 1 256 256"/><path fill="#026" d="M199.6 56.4 223 33a28 28 0 0 0 14.8-8.5c4.8-4.5 9.7-9 19.5-9 9.7 0 14.6 4.5 19.4 9 4.9 4.4 9.8 8.9 19.5 8.9s14.6-4.5 19.5-9 9.7-8.8 19.5-8.8c9.7 0 14.6 4.4 19.4 8.9 5 4.4 9.8 8.9 19.5 8.9q3.9 0 6.9-.9 12.5 7.1 24.2 15.4c-5 1.7-8.3 4.7-11.6 7.8-4.9 4.4-9.7 8.9-19.5 8.9-9.7 0-14.6-4.5-19.5-9-4.8-4.4-9.7-8.9-19.4-8.9-9.8 0-14.6 4.5-19.5 9s-9.8 8.9-19.5 8.9-14.6-4.5-19.5-9c-4.8-4.4-9.7-8.9-19.4-8.9-9.8 0-14.7 4.5-19.5 9s-9.8 8.9-19.5 8.9c-9.2 0-14-4-18.7-8.2m-68.7 68.7L178 78h1.3c9.8 0 14.6 4.4 19.5 8.9s9.8 8.9 19.5 8.9 14.6-4.5 19.5-9c4.8-4.4 9.7-8.8 19.5-8.8 9.7 0 14.6 4.4 19.4 8.9 4.9 4.4 9.8 8.9 19.5 8.9s14.6-4.5 19.5-9 9.7-8.8 19.5-8.8c9.7 0 14.6 4.4 19.4 8.9 5 4.4 9.8 8.9 19.5 8.9 9.8 0 14.6-4.5 19.5-9s9.7-8.8 19.5-8.8c9.7 0 14.6 4.4 19.5 8.9 4.8 4.4 9.7 8.9 19.4 8.9q1.9 0 3.5-.2 8.7 10.7 16.1 22.3v.1c-5 4.5-9.8 9-19.6 9-9.7 0-14.6-4.5-19.4-9-5-4.4-9.8-8.9-19.5-8.9-9.8 0-14.6 4.5-19.5 9s-9.7 8.8-19.5 8.8c-9.7 0-14.6-4.4-19.5-8.9-4.8-4.4-9.7-8.9-19.4-8.9-9.8 0-14.6 4.5-19.5 9s-9.8 8.8-19.5 8.8-14.6-4.4-19.5-8.9c-4.8-4.4-9.7-8.9-19.4-8.9-9.8 0-14.7 4.5-19.5 9s-9.8 8.8-19.5 8.8-14.6-4.4-19.5-8.9-9.7-8.9-19.5-8.9c-9.7 0-14.6 4.5-19.4 9-5 4.4-9.8 8.8-19.5 8.8q-5.7 0-9.5-1.8M67 189l46-46q4.3 2.8 7.9 6.3c4.9 4.4 9.7 8.9 19.5 8.9 9.7 0 14.6-4.5 19.5-9 4.8-4.4 9.7-8.8 19.4-8.8 9.8 0 14.6 4.4 19.5 8.9s9.8 8.9 19.5 8.9 14.6-4.5 19.5-9c4.8-4.4 9.7-8.8 19.5-8.8 9.7 0 14.6 4.4 19.4 8.9 4.9 4.4 9.8 8.9 19.5 8.9s14.6-4.5 19.5-9 9.7-8.8 19.5-8.8c9.7 0 14.6 4.4 19.4 8.9 5 4.4 9.8 8.9 19.5 8.9 9.8 0 14.6-4.5 19.5-9s9.7-8.8 19.5-8.8c9.7 0 14.6 4.4 19.5 8.9 4.8 4.4 9.7 8.9 19.4 8.9 9.8 0 14.6-4.5 19.5-9 3.7-3.3 7.4-6.7 13.3-8.2q7.6 15.3 13.3 31.4-3.1-.8-7.1-.9c-9.8 0-14.6 4.5-19.5 9s-9.7 8.8-19.5 8.8c-9.7 0-14.6-4.4-19.4-8.9-5-4.4-9.8-8.9-19.5-8.9-9.8 0-14.6 4.5-19.5 9s-9.7 8.8-19.5 8.8c-9.7 0-14.6-4.4-19.5-8.9-4.8-4.4-9.7-8.9-19.4-8.9-9.8 0-14.6 4.5-19.5 9s-9.8 8.8-19.5 8.8-14.6-4.4-19.5-8.9c-4.8-4.4-9.7-8.9-19.4-8.9-9.8 0-14.7 4.5-19.5 9s-9.8 8.8-19.5 8.8-14.6-4.4-19.5-8.9-9.7-8.9-19.5-8.9c-9.7 0-14.6 4.5-19.4 9-5 4.4-9.8 8.8-19.5 8.8-9.8 0-14.6-4.4-19.5-8.9s-9.7-8.9-19.5-8.9c-9.7 0-14.6 4.5-19.5 9A28 28 0 0 1 67 189m-45 45 21.7-21.7c4.6 4.2 9.5 8.2 18.8 8.2 9.7 0 14.6-4.4 19.4-8.9 5-4.4 9.8-8.9 19.5-8.9 9.8 0 14.6 4.5 19.5 9s9.7 8.8 19.5 8.8c9.7 0 14.6-4.4 19.5-8.9 4.8-4.4 9.7-8.9 19.4-8.9 9.8 0 14.6 4.5 19.5 9s9.8 8.8 19.5 8.8 14.6-4.4 19.5-8.9c4.8-4.4 9.7-8.9 19.5-8.9 9.7 0 14.6 4.5 19.4 9 4.9 4.4 9.8 8.8 19.5 8.8s14.6-4.4 19.5-8.9 9.7-8.9 19.5-8.9c9.7 0 14.6 4.5 19.4 9 5 4.4 9.8 8.8 19.5 8.8 9.8 0 14.6-4.4 19.5-8.9s9.7-8.9 19.5-8.9c9.7 0 14.6 4.5 19.5 9 4.8 4.4 9.7 8.8 19.4 8.8 9.8 0 14.6-4.4 19.5-8.9s9.7-8.9 19.5-8.9c8 0 12.6 3 16.7 6.5q3.2 17 4 34.8l-1.2-1.2c-4.9-4.4-9.8-8.9-19.5-8.9-9.8 0-14.6 4.5-19.5 9s-9.7 8.8-19.5 8.8c-9.7 0-14.6-4.4-19.4-8.9-5-4.4-9.8-8.9-19.5-8.9-9.8 0-14.6 4.5-19.5 9s-9.7 8.8-19.5 8.8c-9.7 0-14.6-4.4-19.5-8.9-4.8-4.4-9.7-8.9-19.4-8.9-9.8 0-14.6 4.5-19.5 9s-9.8 8.8-19.5 8.8-14.6-4.4-19.5-8.9c-4.8-4.4-9.7-8.9-19.4-8.9-9.8 0-14.7 4.5-19.5 9s-9.8 8.8-19.5 8.8-14.6-4.4-19.5-8.9-9.7-8.9-19.5-8.9c-9.7 0-14.6 4.5-19.4 9-5 4.4-9.8 8.8-19.5 8.8-9.8 0-14.6-4.4-19.5-8.9s-9.7-8.9-19.5-8.9c-9.7 0-14.6 4.5-19.5 9-4.8 4.4-9.7 8.8-19.4 8.8-9.8 0-14.6-4.4-19.5-8.9s-9.8-8.9-19.5-8.9zm485.7 68.8q2.6-13.8 3.6-28l-.8-.8c-4.9-4.4-9.8-8.9-19.5-8.9-9.8 0-14.6 4.5-19.5 9s-9.7 8.8-19.5 8.8c-9.7 0-14.6-4.4-19.4-8.9-5-4.4-9.8-8.9-19.5-8.9-9.8 0-14.6 4.5-19.5 9s-9.7 8.8-19.5 8.8c-9.7 0-14.6-4.4-19.5-8.9-4.8-4.4-9.7-8.9-19.4-8.9-9.8 0-14.6 4.5-19.5 9s-9.8 8.8-19.5 8.8-14.6-4.4-19.5-8.9c-4.8-4.4-9.7-8.9-19.4-8.9-9.8 0-14.7 4.5-19.5 9s-9.8 8.8-19.5 8.8-14.6-4.4-19.5-8.9-9.7-8.9-19.5-8.9c-9.7 0-14.6 4.5-19.4 9-5 4.4-9.8 8.8-19.5 8.8-9.8 0-14.6-4.4-19.5-8.9s-9.7-8.9-19.5-8.9c-9.7 0-14.6 4.5-19.5 9-4.8 4.4-9.7 8.8-19.4 8.8-9.8 0-14.6-4.4-19.5-8.9s-9.8-8.9-19.5-8.9-14.6 4.5-19.5 9l-3.2 2.8Q2 291 4.6 304.7c4.7-4.3 9.6-8.4 19-8.4 9.6 0 14.5 4.4 19.4 8.9s9.7 8.9 19.5 8.9c9.7 0 14.6-4.5 19.4-9 5-4.4 9.8-8.8 19.5-8.8 9.8 0 14.6 4.4 19.5 8.9s9.7 8.9 19.5 8.9c9.7 0 14.6-4.5 19.5-9 4.8-4.4 9.7-8.8 19.4-8.8 9.8 0 14.6 4.4 19.5 8.9s9.8 8.9 19.5 8.9 14.6-4.5 19.5-9c4.8-4.4 9.7-8.8 19.5-8.8 9.7 0 14.6 4.4 19.4 8.9 4.9 4.4 9.8 8.9 19.5 8.9s14.6-4.5 19.5-9 9.7-8.8 19.5-8.8c9.7 0 14.6 4.4 19.4 8.9 5 4.4 9.8 8.9 19.5 8.9 9.8 0 14.6-4.5 19.5-9s9.7-8.8 19.5-8.8c9.7 0 14.6 4.4 19.5 8.9 4.8 4.4 9.7 8.9 19.4 8.9 9.8 0 14.6-4.5 19.5-9s9.7-8.8 19.5-8.8c8 0 12.6 3 16.7 6.5M491 327.5q6.2 0 10.3 2.1a254 254 0 0 1-10.7 29c-9.5.2-14.3 4.6-19 9-5 4.4-9.8 8.9-19.6 8.9-9.7 0-14.6-4.5-19.4-9-5-4.4-9.8-8.8-19.5-8.8-9.8 0-14.6 4.4-19.5 8.9s-9.7 8.9-19.5 8.9c-9.7 0-14.6-4.5-19.5-9-4.8-4.4-9.7-8.8-19.4-8.8-9.8 0-14.6 4.4-19.5 8.9s-9.8 8.9-19.5 8.9-14.6-4.5-19.5-9c-4.8-4.4-9.7-8.8-19.4-8.8-9.8 0-14.7 4.4-19.5 8.9s-9.8 8.9-19.5 8.9-14.6-4.5-19.5-9-9.7-8.8-19.5-8.8c-9.7 0-14.6 4.4-19.4 8.9-5 4.4-9.8 8.9-19.5 8.9-9.8 0-14.6-4.5-19.5-9s-9.7-8.8-19.5-8.8c-9.7 0-14.6 4.4-19.5 8.9-4.8 4.4-9.7 8.9-19.4 8.9-9.8 0-14.6-4.5-19.5-9s-9.8-8.8-19.5-8.8h-2q-6-13.5-10.4-28c3.2-1.9 7-3.2 12.4-3.2 9.7 0 14.6 4.5 19.5 9s9.7 8.8 19.5 8.8c9.7 0 14.6-4.4 19.4-8.9 5-4.4 9.8-8.9 19.5-8.9 9.8 0 14.6 4.5 19.5 9s9.7 8.8 19.5 8.8c9.7 0 14.6-4.4 19.5-8.9 4.8-4.4 9.7-8.9 19.4-8.9 9.8 0 14.6 4.5 19.5 9s9.8 8.8 19.5 8.8 14.6-4.4 19.5-8.9c4.8-4.4 9.7-8.9 19.5-8.9 9.7 0 14.6 4.5 19.4 9 4.9 4.4 9.8 8.8 19.5 8.8s14.6-4.4 19.5-8.9 9.7-8.9 19.5-8.9c9.7 0 14.6 4.5 19.4 9 5 4.4 9.8 8.8 19.5 8.8 9.8 0 14.6-4.4 19.5-8.9s9.7-8.9 19.5-8.9c9.7 0 14.6 4.5 19.5 9 4.8 4.4 9.7 8.8 19.4 8.8 9.8 0 14.6-4.4 19.5-8.9s9.7-8.9 19.5-8.9m-26.3 76.8a23 23 0 0 1-12.7 3.4c-9.7 0-14.6-4.4-19.4-8.9-5-4.5-9.8-9-19.5-9-9.8 0-14.6 4.5-19.5 9s-9.7 8.9-19.5 8.9c-9.7 0-14.6-4.4-19.5-8.9-4.8-4.5-9.7-9-19.4-9-9.8 0-14.6 4.5-19.5 9s-9.8 8.9-19.5 8.9-14.6-4.4-19.5-8.9c-4.8-4.5-9.7-9-19.4-9-9.8 0-14.7 4.5-19.5 9s-9.8 8.9-19.5 8.9-14.6-4.4-19.5-8.9-9.7-9-19.5-9c-9.7 0-14.6 4.5-19.4 9-5 4.5-9.8 8.9-19.5 8.9-9.8 0-14.6-4.4-19.5-8.9s-9.7-9-19.5-9c-9.7 0-14.6 4.5-19.5 9-4.8 4.5-9.7 8.9-19.4 8.9a25 25 0 0 1-18.2-7.7q13.3 19.5 29.7 36 4.4-2.6 8-6c4.8-4.5 9.7-9 19.4-9 9.8 0 14.6 4.5 19.5 9s9.7 8.9 19.5 8.9c9.7 0 14.6-4.5 19.5-9 4.8-4.4 9.7-8.8 19.4-8.8 9.8 0 14.6 4.4 19.5 8.9s9.8 8.9 19.5 8.9 14.6-4.5 19.5-9c4.8-4.4 9.7-8.8 19.5-8.8 9.7 0 14.6 4.4 19.4 8.9 4.9 4.4 9.8 8.9 19.5 8.9s14.6-4.5 19.5-9 9.7-8.8 19.5-8.8c9.7 0 14.6 4.4 19.4 8.9 5 4.4 9.8 8.9 19.5 8.9 9.8 0 14.6-4.5 19.5-9s9.7-8.8 19.5-8.8c9.7 0 14.6 4.4 19.5 8.9q3 2.8 6.3 5.1 14.1-14.4 25.8-30.8m-51.7 48q3.7 0 6.5.7a256 256 0 0 1-64.9 39.3c-4.9-4.4-9.7-8.9-19.4-8.9-9.8 0-14.6 4.5-19.5 9s-9.8 8.9-19.5 8.9-14.6-4.5-19.5-9c-4.8-4.4-9.7-8.9-19.4-8.9-9.8 0-14.7 4.5-19.5 9s-9.8 8.9-19.5 8.9-14.6-4.5-19.5-9-9.7-8.9-19.5-8.9c-9.7 0-14.6 4.5-19.4 9l-.4.3-.4.3q-36.2-14.9-65.9-39.4 3.4-1.2 8.2-1.3c9.8 0 14.6 4.4 19.5 8.9s9.7 8.9 19.5 8.9c9.7 0 14.6-4.5 19.5-9 4.8-4.4 9.7-8.8 19.4-8.8 9.8 0 14.6 4.4 19.5 8.9s9.8 8.9 19.5 8.9 14.6-4.5 19.5-9c4.8-4.4 9.7-8.8 19.5-8.8 9.7 0 14.6 4.4 19.4 8.9 4.9 4.4 9.8 8.9 19.5 8.9s14.6-4.5 19.5-9 9.7-8.8 19.5-8.8c9.7 0 14.6 4.4 19.4 8.9 5 4.4 9.8 8.9 19.5 8.9 9.8 0 14.6-4.5 19.5-9s9.7-8.8 19.5-8.8"/></g><path fill="#026" d="M256 0v256H0A256 256 0 0 1 256 0"/><path fill="#EEE" d="M217.6 256H256v-38.4L140.7 102.3H256V0A256 256 0 0 0 0 256h102.3V140.7z"/><path fill="var(--flag-palette-bright-red, #d80027)" d="M256 76.6V25.4H144.7A257 257 0 0 0 25.4 144.7V256h51.2V76.6z"/><path fill="var(--flag-palette-bright-red, #d80027)" d="M256 230.4V256L102.3 102.3h25.6z"/><path fill="var(--flag-palette-green, #6da544)" d="M334 125.2h100l-50 50.1z"/><path fill="var(--flag-palette-dark-red, #a2001d)" d="M372.9 164.2H395v61.2h-22zm0 161.4H395v61.2h-22z"/><path fill="var(--flag-palette-dark-yellow, #ffc635)" d="M450.8 292.2a33.4 33.4 0 0 0-55.7-25v-19.5h11.2v-22.3H395v-11.1h-22v11h-11.2v22.4H373v19.6a33.4 33.4 0 1 0-44.5 49.8v19.6h111.3v-19.6c6.8-6.2 11.1-15 11.1-25"/><path fill="var(--flag-palette-bright-red, #d80027)" d="M417.4 281a11 11 0 0 0-7.4 2.9l-15 13.3h-22l-15-13.3a11.1 11.1 0 0 0-14.8 16.6l7.4 6.6v7.3h66.8v-7.3l7.4-6.6a11.1 11.1 0 0 0-7.4-19.4"/><defs><clipPath id="a"><path fill="#fff" d="M0 0h512v512H0z"/></clipPath></defs></svg>