<svg xmlns="http://www.w3.org/2000/svg" width="512" height="512" fill="none"><g clip-path="url(#a)"><circle cx="256" cy="256" r="256" fill="var(--flag-palette-bright-red, #d80027)"/><path fill="#EEE" d="M288 2q-15.5-2-31.5-2h-1q-16 0-31.5 2v222H2a259 259 0 0 0 0 64h222v222a259 259 0 0 0 64 0V288h222a258 258 0 0 0 0-64H288z"/><path fill="var(--flag-palette-blue, #0052b4)" fill-rule="evenodd" d="M256 480a224 224 0 1 0 0-448 224 224 0 0 0 0 448m0 32a256 256 0 1 0 0-512 256 256 0 0 0 0 512" clip-rule="evenodd"/><path fill="var(--flag-palette-blue, #0052b4)" d="m432 176-32-64H112l-32 64h64l-20-40h120l-20 40h64l-20-40h120l-20 40z"/></g><defs><clipPath id="a"><path fill="#fff" d="M0 0h512v512H0z"/></clipPath></defs></svg>