<svg xmlns="http://www.w3.org/2000/svg" width="512" height="512" fill="none"><g clip-path="url(#a)"><circle cx="256" cy="256" r="256" fill="#EEE"/><path fill="var(--flag-palette-bright-red, #d80027)" d="M288 2q-15.5-2-31.5-2h-1q-16 0-31.5 2v222H2a259 259 0 0 0 0 64h222v222a259 259 0 0 0 64 0V288h222a258 258 0 0 0 0-64H288z"/><path fill="#333" d="M373.6 312.4c-20.3 0-38 13.7-43.1 33.3l43 11.2 43.2-11.2a44.5 44.5 0 0 0-43.1-33.3m-44.5 100 55.6 11.3V400c15.7-4 28-16.4 32-32l-43.1-11.1h-55.7l11.2 33.4z"/><path fill="var(--flag-palette-mid-grey-3, #acabb1)" d="M416.7 345.7h-98.8v44.6H329v-22.4h87.6a44 44 0 0 0 0-22.2"/><path fill="#333" d="M373.6 88.4c-20.3 0-38 13.6-43.1 33.3l43 11.1 43.2-11.2a44.5 44.5 0 0 0-43.1-33.2m-44.5 100 55.6 11.3V176c15.7-4 28-16.4 32-32l-43.1-11.2h-55.7l11.2 33.4z"/><path fill="var(--flag-palette-mid-grey-3, #acabb1)" d="M416.7 121.7h-98.8v44.6H329v-22.4h87.6a44 44 0 0 0 0-22.2"/><path fill="#333" d="M149.6 312.4c-20.3 0-38 13.7-43.1 33.3l43 11.2 43.2-11.2a44.5 44.5 0 0 0-43.1-33.3m-44.5 100 55.6 11.3V400c15.7-4 28-16.4 32-32l-43.1-11.1H93.9l11.2 33.4z"/><path fill="var(--flag-palette-mid-grey-3, #acabb1)" d="M192.7 345.7H93.9v44.6H105v-22.4h87.6a44 44 0 0 0 0-22.2"/><path fill="#333" d="M149.6 88.4c-20.3 0-38 13.6-43.1 33.3l43 11.1 43.2-11.2a44.5 44.5 0 0 0-43.1-33.2m-44.5 100 55.6 11.3V176c15.7-4 28-16.4 32-32l-43.1-11.2H93.9l11.2 33.4z"/><path fill="var(--flag-palette-mid-grey-3, #acabb1)" d="M192.7 121.7H93.9v44.6H105v-22.4h87.6a44 44 0 0 0 0-22.2"/></g><defs><clipPath id="a"><path fill="#fff" d="M0 0h512v512H0z"/></clipPath></defs></svg>