<svg xmlns="http://www.w3.org/2000/svg" width="512" height="512" fill="none"><circle cx="256" cy="256" r="256" fill="#EEE"/><path fill="var(--flag-palette-bright-red, #d80027)" d="M459.4 100.6 304 256l155.4 155.4q-20.9 27.1-48 48L256 304 100.6 459.4q-27.2-20.9-48-48L208 256 52.6 100.6q20.8-27.2 48-48L256 208 411.4 52.6q27.1 20.8 48 48"/><path fill="var(--flag-palette-dark-yellow, #ffc635)" d="M211.5 78 256 89l44.5-11V40l-17.8 9L256 22.3 229.3 49l-17.8-9z"/><path fill="var(--flag-palette-bright-red, #d80027)" d="M211.5 78v27.7c0 34.1 44.5 44.6 44.5 44.6s44.5-10.5 44.5-44.6V78z"/></svg>