<svg xmlns="http://www.w3.org/2000/svg" width="512" height="512" fill="none"><g clip-path="url(#a)"><path fill="#EEE" fill-rule="evenodd" d="M194.9 7.3q16.3-4 33.3-5.8L260 211l-32 211h-32l-32-211z" clip-rule="evenodd"/><path fill="var(--flag-palette-dark-green, #496e2d)" fill-rule="evenodd" d="M89 450A256.1 256.1 0 0 1 196 7v443z" clip-rule="evenodd"/><path fill="#EEE" fill-rule="evenodd" d="M35.5 125.9A257 257 0 0 1 58 93.7L98 185l49-112 31 14-62 138 62 138-31 14-49-112-49 112-24.2-11-4.1-9L80 225z" clip-rule="evenodd"/><path fill="#EEE" d="M98 80 81 96 65 224l16 130 17 16 17-16 15-131-15-127z"/><path fill="#333" d="m154 148-10 76 10 78a159 159 0 0 0 22-77c0-28-10-54-22-77m-112 0 9 74-9 80a159 159 0 0 1-22-77c0-28 10-54 22-77"/><path fill="var(--flag-palette-dark-red, #a2001d)" d="M42 148v154a269 269 0 0 0 39 52V96c-11 12-26 30-39 52m112 0a269 269 0 0 0-39-52v258c11-12 26-30 39-52z"/><path fill="var(--flag-palette-bright-red, #d80027)" fill-rule="evenodd" d="M450.9 422A256 256 0 0 0 228 1.5V422z" clip-rule="evenodd"/><path fill="#333" fill-rule="evenodd" d="M467 400.9a255.7 255.7 0 0 1-393.5 34.6L86 433l75 8 55-51 41 18 106-56z" clip-rule="evenodd"/></g><defs><clipPath id="a"><path fill="#fff" d="M0 0h512v512H0z"/></clipPath></defs></svg>