<svg xmlns="http://www.w3.org/2000/svg" width="512" height="512" fill="none"><circle cx="256" cy="256" r="256" fill="var(--flag-palette-blue, #0052b4)"/><path fill="#EEE" fill-rule="evenodd" d="M95.5 455.5Q84.8 446.8 75 437L437 75a255 255 0 0 1 71.1 136.5z" clip-rule="evenodd"/><path fill="var(--flag-palette-gold, #ff9811)" fill-rule="evenodd" d="M84.7 446.3q-5-4.5-9.7-9.3L437 75a257 257 0 0 1 46 62.4z" clip-rule="evenodd"/><path fill="#EEE" d="m160 40 10.4 81.4L200 90.7l-11.7 41 41-11.7-30.7 29.6L280 160l-81.4 10.4 30.7 29.6-41-11.7 11.7 41-29.6-30.7L160 280l-10.4-81.4-29.6 30.7 11.7-41-41 11.7 30.7-29.6L40 160l81.4-10.4L90.7 120l41 11.7-11.7-41 29.6 30.7z"/></svg>