<svg xmlns="http://www.w3.org/2000/svg" width="512" height="512" fill="none"><path fill="#026" d="M512 256a256 256 0 1 1-512 0L256 0a256 256 0 0 1 256 256"/><path fill="#026" d="M256 0v256H0A256 256 0 0 1 256 0"/><path fill="#EEE" d="M217.6 256H256v-38.4L140.7 102.3H256V0A256 256 0 0 0 0 256h102.3V140.7z"/><path fill="var(--flag-palette-bright-red, #d80027)" d="M256 76.6V25.4H144.7A257 257 0 0 0 25.4 144.7V256h51.2V76.6z"/><path fill="var(--flag-palette-bright-red, #d80027)" d="M256 230.4V256L102.3 102.3h25.6z"/><path fill="var(--flag-palette-light-blue, #338af3)" d="M306 155.8v122.5c0 59.6 78 77.9 78 77.9s78-18.3 78-78V155.9z"/><path fill="var(--flag-palette-dark-red, #a2001d)" d="M306 278.3c0 59.6 78 77.9 78 77.9s78-18.3 78-78z"/><path fill="#333" d="M417.4 211.5h-22.3v-22.3H373v22.3h-22.3v22.2H373v66.8h22v-66.8h22.3z"/></svg>