<svg xmlns="http://www.w3.org/2000/svg" width="512" height="512" fill="none"><g clip-path="url(#a)"><circle cx="256" cy="256" r="256" fill="var(--flag-palette-yellow, #ffda44)"/><path fill="#026" d="M256 0v256H0A256 256 0 0 1 256 0"/><path fill="#EEE" d="M217.6 256H256v-38.4L140.7 102.3H256V0A256 256 0 0 0 0 256h102.3V140.7z"/><path fill="var(--flag-palette-bright-red, #d80027)" d="M256 76.6V25.4H144.7A257 257 0 0 0 25.4 144.7V256h51.2V76.6z"/><path fill="var(--flag-palette-bright-red, #d80027)" d="M256 230.4V256L102.3 102.3h25.6z"/><path fill="#026" fill-rule="evenodd" d="M51 110.2a59 59 0 0 0 59-64.5A257 257 0 0 0 45.7 110z" clip-rule="evenodd"/><path fill="var(--flag-palette-yellow, #ffda44)" fill-rule="evenodd" d="m77.3 72.7 8.5 26.2L66 84.5q5.4-6 11.3-11.8" clip-rule="evenodd"/><path fill="var(--flag-palette-yellow, #ffda44)" d="m180.3 24.2 6 18.5h19.4L190 54.2l6 18.4-15.7-11.4-15.8 11.4 6-18.4-15.7-11.5h19.4zM51 153.5l6 18.5h19.4l-15.7 11.4 6 18.5L51 190.5l-15.7 11.4 6-18.5L25.6 172H45z"/></g><defs><clipPath id="a"><path fill="#fff" d="M0 0h512v512H0z"/></clipPath></defs></svg>