<svg xmlns="http://www.w3.org/2000/svg" width="512" height="512" fill="none"><g clip-path="url(#a)"><circle cx="256" cy="256" r="256" fill="var(--flag-palette-blue, #0052b4)"/><path fill="#EEE" fill-rule="evenodd" d="M507 306.7a257 257 0 0 0-14-147.5L352.9 18.9A255 255 0 0 0 205.3 5zm-39.7 93.9-355.9-356a257 257 0 0 0-66.8 67l355.9 355.8c26.2-18 48.9-40.7 66.8-66.8M306.6 507 5 205.4A257 257 0 0 0 19 353l140.1 140a255 255 0 0 0 147.5 14" clip-rule="evenodd"/><path fill="var(--flag-palette-bright-red, #d80027)" fill-rule="evenodd" d="M334.8 20.1a22 22 0 0 0-32 .8 46.6 46.6 0 0 0 66.6 65 22 22 0 1 0-31.2-31.3 2.5 2.5 0 0 1-3.4 0 2.5 2.5 0 0 1 0-3.4 22 22 0 0 0 0-31m122.6 122.7a22 22 0 0 0-32 .6 46.6 46.6 0 1 0 66.6 65.2 22.1 22.1 0 0 0-31.1-31.2 2.5 2.5 0 0 1-3.5 0 2.5 2.5 0 0 1 0-3.6 22 22 0 0 0 0-31m-317-51.2a22 22 0 0 0-32 .8 46.6 46.6 0 0 0 66.7 65 22 22 0 0 0-31.2-31.2 2.5 2.5 0 0 1-3.4 0 2.4 2.4 0 0 1 0-3.4 22 22 0 0 0 0-31.2m122.7 122.7a22 22 0 0 0-32 .7 46.6 46.6 0 0 0 66.6 65.1 22 22 0 0 0-31.1-31.2 2.5 2.5 0 0 1-3.5 0 2.5 2.5 0 0 1 0-3.5 22 22 0 0 0 0-31.1M378.6 332a22 22 0 0 1 7.2 36 2.5 2.5 0 0 0 0 3.4 2.4 2.4 0 0 0 3.4 0 22 22 0 1 1 30.4 32 46.6 46.6 0 0 1-65-66.6 22 22 0 0 1 24-4.8M60.3 282.5A22 22 0 0 1 74 303a22 22 0 0 1-6.4 15.5 2.5 2.5 0 0 0 0 3.5 2.5 2.5 0 0 0 3.5 0 22 22 0 1 1 30.4 32 46.6 46.6 0 1 1-65.2-66.6 22 22 0 0 1 24.1-4.8M183 405.2a22 22 0 0 1 7.2 36 2.5 2.5 0 0 0 0 3.4 2.5 2.5 0 0 0 3.4 0 22 22 0 1 1 30.4 32 46.6 46.6 0 0 1-65-66.6 22 22 0 0 1 24-4.8" clip-rule="evenodd"/></g><defs><clipPath id="a"><path fill="#fff" d="M0 0h512v512H0z"/></clipPath></defs></svg>