<svg xmlns="http://www.w3.org/2000/svg" width="512" height="512" fill="none"><g clip-path="url(#a)"><circle cx="256" cy="256" r="256" fill="#EEE"/><path fill="var(--flag-palette-bright-red, #d80027)" fill-rule="evenodd" d="M405.3 48q28.6 20.5 50.6 48H56a258 258 0 0 1 50.6-48zm0 416q28.6-20.6 50.6-48H56a258 258 0 0 0 50.6 48zM143.2 177.5A89 89 0 0 1 247 192a72 72 0 1 0 0 128 89 89 0 1 1-103.8-142.5M270 267v36l21-29 34 11-21-29 21-29-34 11-21-29v36l-34 11z" clip-rule="evenodd"/></g><defs><clipPath id="a"><path fill="#fff" d="M0 0h512v512H0z"/></clipPath></defs></svg>