<svg xmlns="http://www.w3.org/2000/svg" width="512" height="512" fill="none"><circle cx="256" cy="256" r="256" fill="#026"/><path fill="var(--flag-palette-yellow, #ffda44)" fill-rule="evenodd" d="M510 288a258 258 0 0 0 0-64H2a259 259 0 0 0 0 64z" clip-rule="evenodd"/><path fill="#EEE" d="m144 288 10.4 41.4 29.6-30.7-11.7 41 41-11.7-30.7 29.6L224 368l-41.4 10.4 30.7 29.6-41-11.7 11.7 41-29.6-30.7L144 448l-10.4-41.4-29.6 30.7 11.7-41-41 11.7 30.7-29.6L64 368l41.4-10.4L74.7 328l41 11.7-11.7-41 29.6 30.7z"/></svg>