<svg xmlns="http://www.w3.org/2000/svg" width="512" height="512" fill="none"><g clip-path="url(#a)"><path fill="var(--flag-palette-gold, #ff9811)" fill-rule="evenodd" d="M492.4 354.5A255 255 0 0 0 512 256c0-34.9-7-68.1-19.6-98.5L256 128 19.6 157.5A255 255 0 0 0 0 256c0 34.9 7 68.1 19.6 98.5L256 384z" clip-rule="evenodd"/><path fill="#EEE" fill-rule="evenodd" d="M492.4 157.5q7 16.8 11.5 34.5H8.1q4.6-17.7 11.5-34.5L256 128zm0 197q7-16.8 11.5-34.5H8.1q4.6 17.7 11.5 34.5L256 384z" clip-rule="evenodd"/><path fill="var(--flag-palette-light-blue, #338af3)" fill-rule="evenodd" d="M493.4 160H18.6a256 256 0 0 1 474.8 0" clip-rule="evenodd"/><path fill="var(--flag-palette-green, #6da544)" fill-rule="evenodd" d="M493.4 352a256 256 0 0 1-474.8 0z" clip-rule="evenodd"/><path fill="#EEE" d="M256 416a160 160 0 1 0 0-320 160 160 0 0 0 0 320"/><path fill="var(--flag-palette-light-blue, #338af3)" d="M256 384a128 128 0 1 0 0-256 128 128 0 0 0 0 256"/><path fill="var(--flag-palette-gold, #ff9811)" d="M207 139v68h-68l49 49-49 49h68v68l49-49 49 49v-68h68l-49-49 49-49h-68v-68l-49 49z"/></g><defs><clipPath id="a"><path fill="#fff" d="M0 0h512v512H0z"/></clipPath></defs></svg>