<svg xmlns="http://www.w3.org/2000/svg" width="512" height="512" fill="none"><g fill-rule="evenodd" clip-path="url(#a)" clip-rule="evenodd"><path fill="var(--flag-palette-gold, #ff9811)" d="M11.8 179A256 256 0 0 1 224.7 1.8L256 88l-32 88-96 32z"/><path fill="#EEE" d="M511.5 272.4a260 260 0 0 0-1.5-48.7L256 192 2 223.7a259 259 0 0 0-1.5 48.7L32 296 6.8 314.9a257 257 0 0 0 126.3 165.7L256 496l122.9-15.4A257 257 0 0 0 505.2 315L480 296z"/><path fill="var(--flag-palette-dark-green, #496e2d)" d="M224 2q15.8-2 32-2a256 256 0 0 1 254 224H2q3.1-24.8 10.7-48H224zm280 318q6-23.2 7.5-48H.5Q2 296.8 8 320zm-17.7 48H25.7a256 256 0 0 0 30.4 48H456q17.8-22.1 30.4-48m-81 96H106.7c42 30.2 93.6 48 149.3 48s107.3-17.8 149.3-48"/><path fill="#EEE" d="M376.2 165.7c20.6 0 39.3-8.5 52.7-22.1a80.5 80.5 0 1 1-97.8-110 73.7 73.7 0 0 0 45.1 132.1m11.3-97.1L370 76l18.4 4.4L390 100l10.3-16.7L420 88l-13.4-15L417 56l-18.6 7.9L386 50z"/></g><defs><clipPath id="a"><path fill="#fff" d="M0 0h512v512H0z"/></clipPath></defs></svg>