<svg xmlns="http://www.w3.org/2000/svg" width="512" height="512" fill="none"><g clip-path="url(#a)"><path fill="var(--flag-palette-purple, #4a1f63)" fill-rule="evenodd" d="M455.9 416c-47 58.5-119 96-199.9 96-80.8 0-153-37.5-199.9-96z" clip-rule="evenodd"/><path fill="var(--flag-palette-blue, #0052b4)" fill-rule="evenodd" d="M77 439a256 256 0 0 1-61.8-96h481.6a256 256 0 0 1-61.8 96z" clip-rule="evenodd"/><path fill="var(--flag-palette-light-blue, #338af3)" fill-rule="evenodd" d="M24.8 366A255 255 0 0 1 .4 270h511.2a255 255 0 0 1-24.4 96z" clip-rule="evenodd"/><path fill="var(--flag-palette-dark-green, #496e2d)" fill-rule="evenodd" d="M509.3 293a258 258 0 0 0 0-74H2.7a258 258 0 0 0 0 74z" clip-rule="evenodd"/><path fill="var(--flag-palette-yellow, #ffda44)" fill-rule="evenodd" d="M509.3 219H2.7c5-34.7 17-67.2 34.5-96h437.6a254 254 0 0 1 34.5 96" clip-rule="evenodd"/><path fill="var(--flag-palette-gold, #ff9811)" fill-rule="evenodd" d="M408 50a257 257 0 0 1 79.2 96H24.8A257 257 0 0 1 104 50z" clip-rule="evenodd"/><path fill="var(--flag-palette-bright-red, #d80027)" fill-rule="evenodd" d="M77 73A255 255 0 0 1 256 0c69.7 0 132.9 27.8 179 73z" clip-rule="evenodd"/><circle cx="256" cy="256" r="112" fill="var(--flag-palette-brown, #85693d)"/><path fill="var(--flag-palette-dark-yellow, #ffc635)" fill-rule="evenodd" d="M360 256a104 104 0 1 1-208 0 104 104 0 0 1 208 0m-40 0a64 64 0 1 1-128 0 64 64 0 0 1 128 0m-64 56a56 56 0 1 0 0-112 56 56 0 0 0 0 112" clip-rule="evenodd"/><path fill="var(--flag-palette-brown, #85693d)" fill-rule="evenodd" d="M212 232a16 16 0 1 1 32 0 16 16 0 0 1-32 0m16-8a8 8 0 1 0 0 16 8 8 0 0 0 0-16m40 8a16 16 0 1 1 32 0 16 16 0 0 1-32 0m16-8a8 8 0 1 0 0 16 8 8 0 0 0 0-16m-60 40h64a16 16 0 1 1 0 32h-64a16 16 0 1 1 0-32m0 8h2v6h12v-6h4v6h12v-6zm-7.7 6a8 8 0 0 1 5.7-5.7v5.7zm5.7 9.7a8 8 0 0 1-5.7-5.7h5.7zm16 .3h-12v-6h12zm16 0h-12v-6h12zm16 0h-12v-6h12zm16 0h-12v-6h12zm9.7-6a8 8 0 0 1-5.7 5.7V282zm-5.7-9.7c2.8.7 5 2.9 5.7 5.7H290zm-19.7-.3H286v6h-12v-6zm-16.3 0h16v6h-12v-6z" clip-rule="evenodd"/></g><defs><clipPath id="a"><path fill="#fff" d="M0 0h512v512H0z"/></clipPath></defs></svg>