<svg xmlns="http://www.w3.org/2000/svg" width="512" height="512" fill="none"><g clip-path="url(#a)"><circle cx="256" cy="256" r="256" fill="var(--flag-palette-blue, #0052b4)"/><path fill="var(--flag-palette-bright-red, #d80027)" d="M245.6 512a255 255 0 0 1-170.7-74.9L256 256l181.1 181.1A255 255 0 0 1 266.4 512z"/><path fill="var(--flag-palette-yellow, #ffda44)" fill-rule="evenodd" d="M510 287.8a259 259 0 0 0 0-63.6L256 256l204.8-153.6a258 258 0 0 0-51.2-51.2L256 256 287.8 2a259 259 0 0 0-63.6 0L256 256 102.4 51.2a258 258 0 0 0-51.2 51.2L256 256 2 224.2a259 259 0 0 0 0 63.6L256 256z" clip-rule="evenodd"/></g><defs><clipPath id="a"><path fill="#fff" d="M0 0h512v512H0z"/></clipPath></defs></svg>