<svg xmlns="http://www.w3.org/2000/svg" width="512" height="512" fill="none"><g clip-path="url(#a)"><path fill="var(--flag-palette-dark-green, #496e2d)" d="M482.2 376c19-35.8 29.8-76.6 29.8-120s-10.8-84.2-29.8-120H29.8A255 255 0 0 0 0 256c0 43.4 10.8 84.2 29.8 120z"/><path fill="var(--flag-palette-bright-red, #d80027)" d="M496.5 344a256.1 256.1 0 0 1-481 0z"/><path fill="var(--flag-palette-dark-green, #496e2d)" d="M496.5 168h-481a256.1 256.1 0 0 1 481 0"/><path fill="#EEE" fill-rule="evenodd" d="M96 56.1V288h414a254 254 0 0 1-16.6 64H96v103.9c-58.5-47-96-119-96-199.9 0-80.8 37.5-153 96-199.9" clip-rule="evenodd"/><path fill="var(--flag-palette-dark-yellow, #ffc635)" fill-rule="evenodd" d="m58 93.7 8.2-9.5c7.3 11.3 11.6 26.2 2.9 40.6q-3 4.8-7.1 7.9 4.9 3.1 8.2 8.5c10.6 18 1.5 36.6-8.5 48.3l-.2.2-.2.1L44 207c-9 10.6-13.8 23.2-7.2 34 4.9 8.3 15 9.2 20.8 3.9 5.9-5.5 6.9-12.8 3.7-17.3-3.7-5.1-9.6-4.2-11.6-1-2.2 3.4 0 5.9 1.4 6.3a6 6 0 0 1-3 11.6c-10.3-2.6-14.5-15-8.5-24.4 7.6-11.8 23.9-9.9 31.4.5 8 11 3.4 25-5.2 33l-2.8 2.3q1.2.9 2.3 2c8.5 8 13 22 5 33.2-7.4 10.4-23.7 12.4-31.3.6-6.3-9.7-1.7-22 8.5-24.6a6 6 0 1 1 3 11.6c-1.6.4-3.7 3-1.4 6.4 2 3.2 7.8 4.2 11.5-1 3.3-4.6 2.2-12.2-3.5-17.5-6-5.6-16.1-4.7-21 3.5-6.6 11-1.9 23.8 7 34.4L60.6 322l.2.1.2.2c10 11.7 19.3 30.6 8.5 48.6q-3 5-7.4 8.1 4.5 3 7.5 8.2c8.7 14.5 4.3 29.6-3 41l-8.3-9.6c4.6-8.3 5.8-17.3 1-25.2A13.7 13.7 0 0 0 38 390q-3.2-5.2-6.2-10.5l.6-.4-1.5-1.2q-5.5-10-10-20.7-.2-6.8 4-13.2c7.6-10.5 23.9-12.5 31.5-.6 6 9.5 1.9 22-8.6 24.6a6 6 0 1 1-3-11.6c1.5-.4 3.7-3 1.4-6.5-2-3.1-7.7-4.1-11.5 1-3.2 4.7-2.2 12 3.7 17.6 5.7 5.3 15.9 4.4 20.8-3.8v-.1c6.6-11 1.8-23.8-7.2-34.4L34.4 313l-.1-.2-.2-.2C24.1 300.7 15 282 25.6 264q3.3-5.6 8.2-8.7-4.4-3-7.4-8c-10.8-18-1.5-36.7 8.5-48.3l.2-.2.2-.1 17.4-17.2c9-10.5 13.7-23.2 7.2-34-5-8.2-15.2-9-21.1-3.6-5.7 5.4-6.8 12.8-3.5 17.3 3.7 5.1 9.5 4.2 11.5 1 2.2-3.3.3-5.8-1.4-6.2a6 6 0 0 1 3-11.7c10.2 2.6 14.8 14.9 8.5 24.5-7.6 11.8-23.9 9.8-31.4-.6-3.4-4.7-4.5-10-4-15a255 255 0 0 1 8.4-17.3l.7-.7 2-1.7-1-.8 6.1-10.5.3.2c5.7 5.3 16 4.4 20.8-3.8 4.8-7.8 3.6-16.6-.8-24.9M55.5 97q-8.2 10-15.2 21c1 3 4 4.7 7.1 4 10.4-2.7 14.6-15 8.6-24.5zm.2 318.5.5-.8c6.4-9.6 1.8-21.9-8.5-24.5a6 6 0 0 0-7.2 4.2 257 257 0 0 0 15.2 21.1" clip-rule="evenodd"/></g><defs><clipPath id="a"><path fill="#fff" d="M0 0h512v512H0z"/></clipPath></defs></svg>