<svg xmlns="http://www.w3.org/2000/svg" width="512" height="512" fill="none"><g clip-path="url(#a)"><path fill="var(--flag-palette-yellow, #ffda44)" fill-rule="evenodd" d="M231.1 1.2 263 256l-31.9 254.8q-16.8-1.6-33-5.4L167 256 198.2 6.6q16-3.7 33-5.4" clip-rule="evenodd"/><path fill="var(--flag-palette-dark-green, #496e2d)" fill-rule="evenodd" d="M199 6.4v499.2a254 254 0 0 1-34-10.3L135 256l30-239.3a254 254 0 0 1 34-10.3" clip-rule="evenodd"/><path fill="var(--flag-palette-blue, #0052b4)" fill-rule="evenodd" d="M256 512A256 256 0 1 0 231 1.2v509.6q12.3 1.2 25 1.2" clip-rule="evenodd"/><path fill="var(--flag-palette-bright-red, #d80027)" fill-rule="evenodd" d="M167 496.1A256.1 256.1 0 0 1 167 16z" clip-rule="evenodd"/><path fill="var(--flag-palette-bright-red, #d80027)" d="m199 132-11 16 11 16a92 92 0 0 1 0 184l-11 16 11 16a124 124 0 1 0 0-248"/><path fill="var(--flag-palette-blue, #0052b4)" d="M199 132a124 124 0 1 0 0 248v-32a92 92 0 0 1 0-184z"/></g><defs><clipPath id="a"><path fill="#fff" d="M0 0h512v512H0z"/></clipPath></defs></svg>