<svg xmlns="http://www.w3.org/2000/svg" width="512" height="512" fill="none"><g clip-path="url(#a)"><path fill="#EEE" d="M482.2 376c19-35.8 29.8-76.6 29.8-120s-10.8-84.2-29.8-120H29.8A255 255 0 0 0 0 256c0 43.4 10.8 84.2 29.8 120z"/><path fill="var(--flag-palette-bright-red, #d80027)" d="M496.5 344a256.1 256.1 0 0 1-481 0z"/><path fill="var(--flag-palette-dark-green, #496e2d)" d="M496.5 168h-481a256.1 256.1 0 0 1 481 0"/><path fill="#333" d="m256 200.3 13.8 42.6h44.7L278.4 269l13.8 42.6-36.2-26.3-36.2 26.3 13.8-42.6-36.1-26.2h44.7z"/><path fill="#EEE" fill-rule="evenodd" d="M332 50v52c0 8.2-6.6 14.9-14.8 14.9V139a37 37 0 0 0 37.1-37V50zm-159.5 52c0 8.2-6.6 14.9-14.8 14.9V139a37 37 0 0 0 37-37V50h-22.2zm126.2-52h22.2v52h-22.2zm-33.4 29.8a3.7 3.7 0 1 1-7.4 0V50h-22.3v29.7a3.7 3.7 0 1 1-7.4 0V50h-22.3v29.7a26 26 0 0 0 40.8 21.3q6.8 4.5 14.9 4.6l3.2-.2a15 15 0 0 1-14.4 11.4V139a37 37 0 0 0 37.1-37V50h-22.2zm-26 37.1H206l-.1 22.1h33.4z" clip-rule="evenodd"/></g><defs><clipPath id="a"><path fill="#fff" d="M0 0h512v512H0z"/></clipPath></defs></svg>