<svg xmlns="http://www.w3.org/2000/svg" width="512" height="512" fill="none"><g clip-path="url(#a)"><circle cx="256" cy="256" r="256" fill="var(--flag-palette-blue, #0052b4)"/><path fill="var(--flag-palette-yellow, #ffda44)" fill-rule="evenodd" d="M487.1 366.2q-8.3 17.5-19.1 33.4H128.7l-16-16.7 16-16.7zm9.4-22.3H144.7l267.1-222.6c-2.3 11-3.3 22.8-3.3 34.5 0 45.2 26.7 123.6 96.6 159.6q-3.5 14.6-8.6 28.5" clip-rule="evenodd"/><path fill="#EEE" d="m188 133.6 5.6 17h17.9L197 161l5.5 17-14.4-10.5-14.5 10.5 5.5-17-14.4-10.5h17.8zM115.4 256l7 21.3h22.3l-18 13 6.8 21.4-18-13.2-18.1 13.2 6.9-21.3-18.1-13.1h22.3zm0-178 7 21.2h22.3l-18 13.1 6.8 21.3-18-13.2-18.1 13.2 6.9-21.3-18.1-13.1h22.3zM59.8 178l6.9 21.3H89l-18 13.2 6.9 21.2-18.1-13.1-18.1 13.1 7-21.2-18.2-13.2H53z"/></g><defs><clipPath id="a"><path fill="#fff" d="M0 0h512v512H0z"/></clipPath></defs></svg>