<svg xmlns="http://www.w3.org/2000/svg" width="512" height="512" fill="none"><g clip-path="url(#a)"><path fill="var(--flag-palette-bright-red, #d80027)" fill-rule="evenodd" d="M512 256A256 256 0 0 0 332.7 11.7L324 16 299.3 3.6a258 258 0 0 0-86.6 0L188 16l-8.7-4.3A256 256 0 0 0 0 256l256 64z" clip-rule="evenodd"/><path fill="var(--flag-palette-blue, #0052b4)" fill-rule="evenodd" d="M256 512a256 256 0 0 0 256-256H0a256 256 0 0 0 256 256" clip-rule="evenodd"/><path fill="var(--flag-palette-yellow, #ffda44)" fill-rule="evenodd" d="M505.3 197.6 256 256l228-116.6a254 254 0 0 1 21.3 58.2M449.4 88.3 256 256 406 48.5q24 17.5 43.4 39.8M349.2 17.5 256 256 291.7 2.5q30 4.3 57.5 15m-128.9-15L256 256 162.8 17.5a254 254 0 0 1 57.5-15M106 48.5 256 256 62.2 88.7Q81.8 66.1 106 48.5m-78 90.9L256 256 6.7 197.6q7.3-30.8 21.4-58.2" clip-rule="evenodd"/><path fill="var(--flag-palette-gold, #ff9811)" d="m256 128 83 256-217-159h268L173 384z"/></g><defs><clipPath id="a"><path fill="#fff" d="M0 0h512v512H0z"/></clipPath></defs></svg>