<svg xmlns="http://www.w3.org/2000/svg" width="512" height="512" fill="none"><g clip-path="url(#a)"><path fill="#EEE" d="M503.2 322.8q8.7-32 8.8-66.8l-8.8-66.8a255 255 0 0 0-28.8-66.8l-59-66.7A255 255 0 0 0 256 0h-.2A255 255 0 0 0 96.6 55.7l-59 66.7a255 255 0 0 0-28.8 66.8L0 256v.1q0 34.6 8.8 66.7l28.8 66.8a257 257 0 0 0 59 66.7L256 512l159.4-55.7a257 257 0 0 0 59-66.7z"/><path fill="var(--flag-palette-bright-red, #d80027)" d="M503.2 189.2q8.7 32 8.8 66.8H0q0-34.7 8.8-66.8zM415.4 55.7a257 257 0 0 1 59 66.7H37.6a257 257 0 0 1 59-66.7zm59 333.9q19-31 28.8-66.8H8.8a255 255 0 0 0 28.8 66.8zm-59 66.7H96.6A255 255 0 0 0 255.8 512h.4a255 255 0 0 0 159.2-55.7"/><path fill="var(--flag-palette-blue, #0052b4)" d="M0 245.6A256 256 0 0 1 256 0v256H0z"/><path fill="#EEE" d="m209.9 174.2 1.5 13.2-11.6 4.6 12.4 3.1.8 12.4 7-10.8 12.4 2.3-8.6-9.3 6.2-10.9-11.6 5.5zm-111.8 0-8.5 9.3-11.6-4.7 6.2 10.9-8.6 9.3 13.2-2.3 6.2 10.8.8-12.4 12.4-3-11.6-4.7zm134.3-36.5-7.8 10L213 144l7 10.1-7 10 11.6-3.8 7.8 10V158l11.6-4-11.6-3.9zm-156 0v12.4L64 154l12.4 3.9v12.4l7-10 12.4 3.8-7.7-10.1 7.7-10-12.4 3.8zm137.3-37.2-1.5 12.4-12.4 3 11.6 4.7-1.5 13.2 8.5-9.3 11.6 4.7-6.2-10.9 8.6-9.3-12.5 2.3zm-118.7 0-6.2 10.8-13.2-2.3 8.6 9.3-6.2 10.9 11.6-4.7 8.5 9.3-1.5-13.2 11.6-4.6-12.4-3.1zm104-24.9-9.3 8.6-10.9-6.2 5.5 11.6-10.1 8.5 13.2-1.5 4.6 11.6 3.1-12.4 12.4-.8-10.8-6.2zm-90 0 2.3 12.5-10.8 7 12.4.7 3 12.4 5.5-11.6 12.4 1.5-9.3-8.5 4.7-11.6-10.9 6.2zM154 64l-3.9 11.6h-12.4l10 7.8L144 95l10.1-7 10 7-3.8-11.6 10-7.8H158zm45 168.4-9.3-8.6-10.9 6.2 5.5-11.6-10.1-8.5 13.2 1.5 4.6-11.6 3.1 12.4 12.4.8-10.8 6.2zm-90 0 2.3-12.5-10.8-7 12.4-.7 3-12.4 5.5 11.6 12.4-1.5-9.3 8.5 4.7 11.6-10.9-6.2zm45 11.6-3.9-11.6h-12.4l10-7.8L144 213l10.1 7 10-7-3.8 11.6 10 7.8H158z"/></g><defs><clipPath id="a"><path fill="#fff" d="M0 0h512v512H0z"/></clipPath></defs></svg>