<svg xmlns="http://www.w3.org/2000/svg" width="512" height="512" fill="none"><circle cx="256" cy="256" r="256" fill="var(--flag-palette-bright-red, #d80027)"/><path fill="#EEE" d="M478.6 129.4 352 256l126.6 126.6c-22.8 40-56 73.2-96 96L256 352 129.4 478.6c-40-22.8-73.2-56-96-96L160 256 33.4 129.4c22.8-40 56-73.2 96-96L256 160 382.6 33.4c40 22.8 73.2 56 96 96"/><path fill="var(--flag-palette-blue, #0052b4)" d="M459.4 100.6 304 256l155.4 155.4q-20.9 27.1-48 48L256 304 100.6 459.4q-27.2-20.9-48-48L208 256 52.6 100.6q20.8-27.2 48-48L256 208 411.4 52.6q27.1 20.8 48 48"/><path fill="#EEE" d="m256 232 5.4 16.6h17.4l-14 10.2 5.3 16.6-14-10.2-14.2 10.2 5.4-16.6-14.1-10.2h17.4zm52.2 52.2 5.3 16.5H331L316.9 311l5.4 16.6-14.1-10.3-14.1 10.3 5.4-16.6-14.1-10.3h17.4zm-104.3 0 5.3 16.6h17.5L212.6 311l5.3 16.6-14-10.3-14.1 10.3L195 311l-14-10.2h17.4zm156.4 52.1 5.4 16.6h17.4l-14 10.2 5.3 16.6-14-10.2-14.2 10.2 5.4-16.6-14-10.2h17.3zm-208.6 0L157 353h17.4l-14.1 10.3 5.4 16.5-14.1-10.2-14.1 10.2 5.4-16.5-14.1-10.3h17.4zm260.8 52.2 5.4 16.6h17.4l-14.1 10.2 5.4 16.6-14.1-10.3-14.1 10.3 5.4-16.6-14.1-10.2H407zm-313 0 5.4 16.6h17.4l-14 10.2 5.3 16.6-14-10.3L85.3 432l5.4-16.6-14-10.2H94zm104.3-208.6 5.4 16.5h17.5l-14.1 10.3 5.3 16.5-14-10.2-14.2 10.2 5.4-16.5-14-10.3h17.4zm104.4 0 5.4 16.5H331l-14.1 10.3 5.4 16.5-14.1-10.2-14.1 10.2 5.4-16.5-14.1-10.3h17.4zm-156.5-52.2 5.4 16.6h17.4l-14.1 10.2 5.4 16.6-14.1-10.3-14.1 10.3 5.4-16.6-14.1-10.2h17.4zm208.6 0 5.4 16.6h17.4l-14 10.2 5.3 16.6-14-10.3-14.2 10.3 5.4-16.6-14-10.2h17.3zM99.5 75.5l5.4 16.6h17.4l-14 10.3 5.3 16.5-14-10.2-14.2 10.2 5.4-16.5-14-10.3H94zm313 0 5.4 16.6h17.4l-14.1 10.3 5.4 16.5-14.1-10.2-14.1 10.2 5.4-16.5L389.7 92H407z"/></svg>