<svg xmlns="http://www.w3.org/2000/svg" width="512" height="512" fill="none"><g clip-path="url(#a)"><circle cx="256" cy="256" r="256" fill="#EEE"/><path fill="var(--flag-palette-bright-red, #d80027)" fill-rule="evenodd" d="M510.7 282a259 259 0 0 0-8.4-96H9.7a256 256 0 0 0-8.4 96zm-12.5 57H13.8A256 256 0 0 0 73 435h366a256 256 0 0 0 59.2-96" clip-rule="evenodd"/><path fill="var(--flag-palette-bright-red, #d80027)" d="m130.8 60.7 11 34h35.8l-29 21 11.1 34-28.9-21-28.9 21 11-34-28.9-21h35.8zm125.2 0 11 34h35.8l-29 21 11 34-28.8-21-28.9 21 11-34-28.9-21H245zm125.2 0 11 34H428l-29 21 11 34-28.8-21-28.9 21 11-34-28.9-21h35.8z"/></g><defs><clipPath id="a"><path fill="#fff" d="M0 0h512v512H0z"/></clipPath></defs></svg>