<svg xmlns="http://www.w3.org/2000/svg" width="512" height="512" fill="none"><g clip-path="url(#a)"><path fill="#EEE" fill-rule="evenodd" d="m0 256 32 64-14.5 29a257 257 0 0 0 84.9 111.8L256 480l153.6-19.2c37.8-28.4 67.5-67 85-111.7L480 320l32-64a256 256 0 1 0-512 0" clip-rule="evenodd"/><path fill="#026" fill-rule="evenodd" d="M471.6 117.9a255 255 0 0 1 32.3 74.1H256v19l-83-83h83l128-32zm6.2 266.1c11.6-20 20.5-42 26.4-65L256 288 7.8 319c5.9 23 14.8 45 26.4 65zM128 256v-83l83 83z" clip-rule="evenodd"/><path fill="var(--flag-palette-bright-red, #d80027)" fill-rule="evenodd" d="M504 320q7.9-30.8 8-64H256v-31l-97-97h-31l128 128H96V96h160v32h221.8c-14-24-31.7-45.7-52.5-64H256V32H132A257 257 0 0 0 32 132v124H0q.1 33.2 8 64zm-78.7 128H86.7A255 255 0 0 0 256 512a255 255 0 0 0 169.3-64" clip-rule="evenodd"/><path fill="#026" d="M256 0v256H0A256 256 0 0 1 256 0"/><path fill="#EEE" d="M217.6 256H256v-38.4L140.7 102.3H256V0A256 256 0 0 0 0 256h102.3V140.7z"/><path fill="var(--flag-palette-bright-red, #d80027)" d="M256 76.6V25.4H144.7A257 257 0 0 0 25.4 144.7V256h51.2V76.6z"/><path fill="var(--flag-palette-bright-red, #d80027)" d="M256 230.4V256L102.3 102.3h25.6z"/></g><defs><clipPath id="a"><path fill="#fff" d="M0 0h512v512H0z"/></clipPath></defs></svg>