<svg xmlns="http://www.w3.org/2000/svg" width="512" height="512" fill="none"><g clip-path="url(#a)"><path fill="var(--flag-palette-bright-red, #d80027)" fill-rule="evenodd" d="M358 491a256 256 0 0 0 0-470L256 64 154 21a256 256 0 0 0 0 470l102-43z" clip-rule="evenodd"/><path fill="var(--flag-palette-gold, #ff9811)" fill-rule="evenodd" d="M408 50v412a256 256 0 0 1-59 32.5L256 448l-93 46.5q-32-12.4-59-32.5V50q27.1-20 59-32.5L256 64l93-46.5q32 12.4 59 32.5" clip-rule="evenodd"/><path fill="#026" fill-rule="evenodd" d="M384 34.2v443.6A255 255 0 0 1 256 512c-46.6 0-90.3-12.5-128-34.2V34.2A255 255 0 0 1 256 0c46.6 0 90.3 12.5 128 34.2" clip-rule="evenodd"/><path fill="#EEE" d="m198 155 3 16-14 9 16 1 4 16 7-15 16 2-12-11 6-15-14 8zm116 0-12 11-14-8 7 15-13 11 17-2 6 15 4-16 16-1-14-8zm-134 32-8 14-17-3 11 12-8 14 15-6 11 12-2-17 15-6-16-4zm153 0-2 16-16 4 15 6-2 17 11-12 15 6-8-14 11-12-16 3zm-77 21a16 16 0 0 0-16 16q0 4.3 2 8a16 16 0 0 0-6-6 16 16 0 0 0-8-2 16 16 0 1 0 0 32 16 16 0 0 0-15.6 11.7A16 16 0 0 0 214 280a16 16 0 0 0 22 6 16 16 0 0 0 6-6 16 16 0 0 0-2 8 16 16 0 0 0 32 0 16 16 0 0 0-2-8 16 16 0 0 0 12 8 16 16 0 0 0 16-8 16 16 0 0 0-14-24 16 16 0 0 0 15.6-11.7A16 16 0 0 0 285 224a16 16 0 0 0-15 8 16 16 0 0 0 2-8 16 16 0 0 0-16-16m-100 27v16l-16 5 16 5v16l9-13 16 5-10-13 10-13-16 5zm201 0-10 13-15-5 9 13-9 13 15-5 10 13v-16l15-5-15-5zm-173 47-11 12-15-6 8 14-11 12 17-3 8 14 1-16 16-4-15-6zm144 0 2 17-15 6 16 4 1 16 9-14 16 3-11-12 8-14-15 7zm-130 40-11 12a104 104 0 0 0 138 0l-11-12a88 88 0 0 1-116 0"/><path fill="var(--flag-palette-gold, #ff9811)" d="m256 140-5 15h-16l13 10-5 15 13-9 13 9-5-15 13-10h-16zm0 100a16 16 0 1 0 0 32 16 16 0 0 0 0-32"/></g><defs><clipPath id="a"><path fill="#fff" d="M0 0h512v512H0z"/></clipPath></defs></svg>