<svg xmlns="http://www.w3.org/2000/svg" width="512" height="512" fill="none"><g clip-path="url(#a)"><path fill="#026" fill-rule="evenodd" d="M232.3 511a256 256 0 0 1 0-510L296 256z" clip-rule="evenodd"/><path fill="var(--flag-palette-bright-red, #d80027)" fill-rule="evenodd" d="M232 1.1q12-1 24-1.1a256 256 0 0 1 256 256l-140 64-140-64z" clip-rule="evenodd"/><path fill="#EEE" fill-rule="evenodd" d="M256 512a256 256 0 0 0 256-256H232v254.9q12 1 24 1.1" clip-rule="evenodd"/><path fill="#026" fill-rule="evenodd" d="M232 510.9A256 256 0 0 1 232 1z" clip-rule="evenodd"/><path fill="#EEE" d="m91 294 65-47H76l65 47-25-76z"/><path fill="var(--flag-palette-dark-yellow, #ffc635)" fill-rule="evenodd" d="M33.3 129.7q7.5-13.2 16.3-25.2a183 183 0 0 1 141.5 3.7l2.8 1.3-1.2 2.8-1.3 2.9.5.3q5.8 2.7 11.4 6l4.7 2.6-4.6 2.7-9.7 6q0 6-.6 12.1l-.4 4.9-4.2-2.4q-5.7-3.3-11.6-6l-6.2-2.8 2-4.8a151 151 0 0 0-113.2-.1l1.8 4.9-6.2 2.8a149 149 0 0 0-11.6 6l-4.2 2.3-.5-4.8q-.5-6-.7-12zm16.3 277.8q-8.8-12-16.3-25.1l5-3.2q0-6 .6-12.1l.4-4.9 4.2 2.4q5.7 3.3 11.6 6l6.2 2.8-2 4.8a151 151 0 0 0 113.2.1l-1.8-4.9 6.2-2.8q6-2.7 11.6-6l4.2-2.3.5 4.8q.5 6 .7 12l9.5 6.1 4.6 2.8-4.6 2.6q-5.5 3.2-11.4 6l-.6.2 1.3 3 1.3 2.7-2.8 1.3a183 183 0 0 1-141.6 3.7M24 224h40v64H24zm144 0h40v64h-40z" clip-rule="evenodd"/></g><defs><clipPath id="a"><path fill="#fff" d="M0 0h512v512H0z"/></clipPath></defs></svg>