<svg xmlns="http://www.w3.org/2000/svg" width="512" height="512" fill="none"><g clip-path="url(#a)"><path fill="#026" fill-rule="evenodd" d="M443 431a255 255 0 0 0 69-175c0-67.6-26.2-129.1-69-175l-11 175z" clip-rule="evenodd"/><path fill="#EEE" fill-rule="evenodd" d="M448 86.7v338.6a258 258 0 0 1-35.3 33.2L400 256l12.7-202.5q19.2 15 35.3 33.2" clip-rule="evenodd"/><path fill="var(--flag-palette-bright-red, #d80027)" fill-rule="evenodd" d="M416 56.1V456a256 256 0 1 1 0-399.7" clip-rule="evenodd"/><path fill="#EEE" d="M208 416a160 160 0 1 0 0-320 160 160 0 0 0 0 320"/><path fill="#026" d="M208 384a128 128 0 1 0 0-256 128 128 0 0 0 0 256"/><path fill="#EEE" d="m145 284 60 83V265l-60 83 98-32zm15-128-22 100 76-68-102 11 89 51zm147 49-42 93-21-100 75 69-102-11z"/></g><defs><clipPath id="a"><path fill="#fff" d="M0 0h512v512H0z"/></clipPath></defs></svg>