<svg xmlns="http://www.w3.org/2000/svg" width="512" height="512" fill="none"><path fill="#026" d="M512 256a256 256 0 1 1-512 0L256 0a256 256 0 0 1 256 256"/><path fill="#026" d="M256 0v256H0A256 256 0 0 1 256 0"/><path fill="#EEE" d="M217.6 256H256v-38.4L140.7 102.3H256V0A256 256 0 0 0 0 256h102.3V140.7z"/><path fill="var(--flag-palette-bright-red, #d80027)" d="M256 76.6V25.4H144.7A257 257 0 0 0 25.4 144.7V256h51.2V76.6z"/><path fill="var(--flag-palette-bright-red, #d80027)" d="M256 230.4V256L102.3 102.3h25.6z"/><path fill="var(--flag-palette-dark-green, #496e2d)" d="M306 139.1v122.5c0 59.6 78 77.9 78 77.9s78-18.3 78-78V139.2z"/><path fill="#EEE" d="M367.3 194.8h33.4v89h-33.4z"/><path fill="var(--flag-palette-dark-brown, #584528)" d="M384 211.5a16.7 16.7 0 1 0 0-33.4 16.7 16.7 0 0 0 0 33.4"/><path fill="var(--flag-palette-yellow, #ffda44)" d="M328.4 161.4h22.2v22.2h-22.2zm0 50.1h22.2v22.2h-22.2zm0 50.1h22.2v22.2h-22.2zm89-100.2h22.3v22.2h-22.3zm0 50.1h22.3v22.2h-22.3zm0 50.1h22.3v22.2h-22.3z"/><path fill="var(--flag-palette-yellow, #ffda44)" fill-rule="evenodd" d="m296.7 343.5 11.4 6 .6.2-1.4 2.9-1.2 2.8 2.8 1.3a183 183 0 0 0 150.3 0l2.8-1.3-1.3-2.8-1.3-2.9.6-.3q5.9-2.7 11.4-6l4.6-2.6-4.6-2.7-9.5-6q-.2-6.2-.7-12.2l-.4-4.8-4.2 2.4q-5.7 3.3-11.7 6l-6.2 2.8 1.8 4.9a151 151 0 0 1-113.2-.1l2-4.8-6.1-2.8q-6-2.7-11.7-6l-4.2-2.4-.4 4.9-.6 12q-4.7 3.3-9.6 6.1l-4.7 2.7z" clip-rule="evenodd"/></svg>