<svg xmlns="http://www.w3.org/2000/svg" width="512" height="512" fill="none"><path fill="var(--flag-palette-green, #6da544)" d="M256 512a256 256 0 0 0 256-255.5v-.5l-256-32L0 256a256 256 0 0 0 256 256"/><path fill="var(--flag-palette-bright-red, #d80027)" d="M512 255.5v.5H0a256 256 0 0 1 512-.5"/><path fill="#333" fill-rule="evenodd" d="M509.8 289.4a258 258 0 0 0 0-66.8H222.6L75 75A255 255 0 0 0 0 256c0 70.7 28.7 134.7 75 181l147.6-147.6z" clip-rule="evenodd"/><path fill="var(--flag-palette-yellow, #ffda44)" fill-rule="evenodd" d="M511.8 267a259 259 0 0 0 0-22.2H213.2L59.9 91.5q-7.2 8.5-13.7 17.7L192.8 256 46.1 402.6q6.5 9.3 13.7 17.8L213.2 267z" clip-rule="evenodd"/><path fill="var(--flag-palette-yellow, #ffda44)" d="M54.6 310.6V289a39 39 0 0 0 38.8-38.8A27.5 27.5 0 0 0 65.9 223a18.7 18.7 0 0 0-18.7 18.7 12 12 0 0 0 12 12c3.7 0 6.8-3.1 6.8-6.8h21.4A28 28 0 0 1 59.2 275c-18.4 0-33.4-15-33.4-33.4 0-22.2 18-40.2 40.1-40.2a49 49 0 0 1 49 49c0 33.1-27 60.2-60.3 60.2"/></svg>