<svg xmlns="http://www.w3.org/2000/svg" width="512" height="512" fill="none"><g clip-path="url(#a)"><circle cx="256" cy="256" r="256" fill="var(--flag-palette-bright-red, #d80027)"/><path fill="#EEE" d="m384 232-72-72h144zm-24 24-72-72v144zm24 24-72 72h144zm24-24 72-72v144zM0 245.6A256 256 0 0 1 256 0v256H0z"/><path fill="#026" fill-rule="evenodd" d="M2 224c7.2-58 33.8-109.8 73-149v149z" clip-rule="evenodd"/><path fill="#EEE" fill-rule="evenodd" d="M75 75a257 257 0 0 1 74-51.6V224H75z" clip-rule="evenodd"/><path fill="var(--flag-palette-bright-red, #d80027)" fill-rule="evenodd" d="M149 23.4Q184.1 7 224 2v222h-75z" clip-rule="evenodd"/></g><defs><clipPath id="a"><path fill="#fff" d="M0 0h512v512H0z"/></clipPath></defs></svg>