<svg xmlns="http://www.w3.org/2000/svg" width="512" height="512" fill="none"><g clip-path="url(#a)"><circle cx="256" cy="256" r="256" fill="#EEE"/><path fill="var(--flag-palette-mid-grey-3, #acabb1)" fill-rule="evenodd" d="m503.3 322.3-30.9-8.3a224 224 0 0 0 0-116l31-8.3a256 256 0 0 1 0 132.6M477.7 128 450 144a224 224 0 0 0-82-82l16-27.7a257 257 0 0 1 93.7 93.7M322.3 8.7 314 39.6a224 224 0 0 0-116 0l-8.3-31a256 256 0 0 1 132.6 0M128 34.3 144 62a224 224 0 0 0-82 82l-27.7-16A257 257 0 0 1 128 34.3M8.7 189.7a256 256 0 0 0 0 132.6l30.9-8.3a224 224 0 0 1 0-116zM34.3 384 62 368a224 224 0 0 0 82 82l-16 27.7A257 257 0 0 1 34.3 384m155.4 119.3 8.3-30.9a224 224 0 0 0 116 0l8.3 31a256 256 0 0 1-132.6 0M384 477.7 368 450a224 224 0 0 0 82-82l27.7 16a257 257 0 0 1-93.7 93.7" clip-rule="evenodd"/><path fill="var(--flag-palette-mid-grey-3, #acabb1)" d="M256.9 115.2q42.1 0 65.5 20.3 23.2 20.3 23.3 57.3c0 11-2.6 22-7.6 31.8q-10.6 18.7-26.4 33.2L295.5 273a54 54 0 0 0-17.3 33.9l-.8 13.1h-51c0-18.5 2.3-34.2 6.8-45.2a90 90 0 0 1 24.8-32.3q13.8-11.3 23.9-26 6-10 6-21.1 0-33.5-31-33.4-14.7 0-23.5 9a35 35 0 0 0-9.3 24.8l-.1 9h-57.6V192h.2a75 75 0 0 1 24.3-55.4q24.2-21.3 66-21.4M285 380a32 32 0 1 1-64 0 32 32 0 0 1 64 0"/></g><defs><clipPath id="a"><path fill="#fff" d="M0 0h512v512H0z"/></clipPath></defs></svg>