<?xml version="1.0" encoding="UTF-8"?>
<svg id="Ebene_1" data-name="Ebene 1" xmlns="http://www.w3.org/2000/svg" viewBox="0 0 457 471.02">
  <defs>
    <style>
      .cls-1 {
        fill: #fff;
      }
    </style>
  </defs>
  <path class="cls-1" d="M189,1.11c-6.3,.9-15.8,2.6-21,4-19.8,5.2-21.6,5.8-31.2,9.6-2.6,1-5.3,1.8-6.1,1.8-.7,0-3.1,1.5-5.3,3.4-3.8,3.3-3.9,3.5-4.1,10.8-.2,8.9,.6,10.9,3.8,9,5-3.2,14.3-5.6,39.3-10.2,13.4-2.5,35.9-2.4,47,.3l6.8,1.6,4.7-3.8c4.5-3.8,13.9-9,23.1-12.9,3.8-1.6,6.9-2.6,14.8-4.8,2.5-.7,1.1-3.4-2.7-5.4-7.7-3.9-49.1-5.9-69.1-3.4Z"/>
  <path class="cls-1" d="M277,7.51c0,.5,.9,1,2.1,1,1.1,0,1.7-.5,1.4-1-.3-.6-1.3-1-2.1-1s-1.4,.4-1.4,1Z"/>
  <path class="cls-1" d="M287,10.51c0,.5,.9,1,2.1,1,1.1,0,1.7-.5,1.4-1-.3-.6-1.3-1-2.1-1s-1.4,.4-1.4,1Z"/>
  <path class="cls-1" d="M295.5,13.51c.3,.5,1.3,1,2.1,1,.9,0,4,1.1,7.1,2.5,3,1.4,6.1,2.4,6.7,2.2,.6-.3-.7-1.2-2.9-2.2-2.2-.9-5.4-2.3-7.2-3.1-3.6-1.6-6.7-1.9-5.8-.4Z"/>
  <path class="cls-1" d="M313,19.91c0,.3,4.1,2.5,9,5,5,2.5,10,5.2,11.3,6.1,2.4,1.7,5.7,2.1,4.2,.6-1.4-1.4-22.3-12.1-23.5-12.1-.5,0-1,.2-1,.4Z"/>
  <path class="cls-1" d="M340,34.21c0,.5,1.7,1.8,3.9,3,2.1,1.2,6.8,4.8,10.5,7.9s6.9,5.5,7.2,5.2c.6-.7-12.1-11.8-16.7-14.6-3.9-2.3-4.9-2.6-4.9-1.5Z"/>
  <path class="cls-1" d="M367,54.31c0,1.1,3,5.5,4.7,6.9,2.9,2.3,15.9,20.3,19.2,26.5,4.7,8.9,6.3,13.5,7,19.8,.5,4.9,.9,5.5,3.1,5.8,3.2,.5,7.5,4.6,15.4,14.7,6.5,8.3,13.6,18.2,13.6,18.9,0,.2,1.6,2.8,3.5,5.7,1.9,3,3.5,6.1,3.5,7s.7,2.2,1.5,2.9,1.5,2.2,1.5,3.4c0,2.8,1.5,5,2.9,4.2,.6-.4,1.1-2.3,1.1-4.2,0-3.3-1.2-6.5-6.1-17-1-2.2-1.9-4.5-1.9-5.1s-.7-1.6-1.5-2.3-1.5-2-1.5-3c0-.9-.9-2.5-2-3.5s-2-2.9-2-4.2-.7-2.6-1.5-2.9c-.8-.4-1.5-1.5-1.5-2.5,0-1.1-1.6-4.2-3.5-6.9s-3.5-5.2-3.5-5.5c0-.7-6.6-10.1-10.5-15-1.7-2.2-3.4-4.7-3.7-5.5-.2-.8-1.3-1.5-2.4-1.5-1,0-1.9-.7-1.9-1.5s-1-2.6-2.2-4c-1.3-1.4-4.6-5.4-7.4-9-10.8-13.8-23.9-26-23.9-22.2Z"/>
  <path class="cls-1" d="M258,98.31c-2.6,1.8-12.7,12-17.2,17.5-2.3,2.7-5.5,6.8-16.7,20.7-1.1,1.4-3.4,4-5.1,5.9-1.6,1.9-3,4-3,4.7,0,.8-1.1,1.6-2.5,2-1.6,.4-2.5,1.3-2.5,2.5,0,1.1-1.1,2.9-2.5,4.1s-2.5,2.8-2.5,3.5c0,.8-1.6,2.1-3.5,2.9-3.3,1.4-4.5,3.6-2.6,4.8,.5,.3,1.2,1.8,1.6,3.3,1.2,4.8,4.4,11,6,11.7,.8,.3,1.5,1.4,1.5,2.4s.9,2.7,2.1,3.8c1.1,1,2.9,3.7,3.9,6,1.1,2.3,2.6,4.4,3.5,4.8,.8,.3,1.5,1.3,1.5,2.2s1.2,3.1,2.8,4.9c4,4.9,6.4,8.5,8.5,12.7,1.1,2.1,2.3,3.8,2.8,3.8,.6,0,1.8,2,2.9,4.5s2.4,4.5,3,4.5c.5,0,1,.8,1,1.9,0,1,.7,2.4,1.5,3.1,1.8,1.5,7.6,11.5,9,15.5,.9,2.7,1.4,3,6,3.3,6.4,.3,39.1-4.4,46.9-6.8,2.1-.6,5.9-1.5,8.5-2,2.5-.5,9.3-2,15.1-3.5,5.8-1.4,13.1-2.9,16.2-3.2,3.2-.3,6.3-1.2,7-2,2.7-3.3,4-18.6,4.1-47.8,.1-31-1.7-51.1-4.9-54.6-5.9-6.5-47.7-26.5-70.9-33.9-3.8-1.2-8.7-2.8-10.8-3.6-4.8-1.8-7.6-1.7-10.7,.4Zm-40.6,75.7c2.6,3.9,5.7,8.8,6.7,11.1,1.9,4.1,1.6,8.4-.5,8.4-1.3,0-5.2-3.8-7-6.8-2.8-4.8-8.7-13.1-9.6-13.7-1.6-1-1.2-4.3,.8-5.4,3-1.8,4.6-.8,9.6,6.4Z"/>
  <path class="cls-1" d="M55,117.61c-12.7,6.9-35.4,25.7-43.4,35.9-5.7,7.3-7.3,12.9-9.6,35-3.4,31.8-2.1,54.8,3.3,60.8,1.1,1.2,3.9,2.7,6.1,3.3,2.3,.6,12.7,4,23.3,7.5,10.6,3.6,20,6.4,20.9,6.2,1-.2,2.4-2.9,3.8-7.3,3-9.3,8.9-24.4,13-33,6.7-14.2,8.8-18.3,11.6-23.3,.6-.9,1.6-2.8,2.3-4.2,2.9-5.9,7.2-12.6,8.9-14,2.9-2.4,3.5-8.6,1-11.3-1.1-1.2-4.1-6.3-6.7-11.2-13-24.7-22.3-43.3-22.9-45.8-.9-3.7-2.7-3.5-11.6,1.4Zm34.4,58.5c2.5,2.4,2,4-3.2,10.7-5,6.4-13.7,19.7-16.6,25.6-2.7,5.1-3.9,2.5-2.1-4.4,1.9-7.2,11.7-26.9,15.3-30.8,2.9-3.1,4.4-3.4,6.6-1.1Z"/>
  <path class="cls-1" d="M445,175.51c0,.5,.5,1,1,1,.6,0,1-.5,1-1,0-.6-.4-1-1-1-.5,0-1,.4-1,1Z"/>
  <path class="cls-1" d="M448.4,183.51c.3,1.4,.6,3.3,.6,4.2,0,1,.5,1.8,1.1,1.8,1.4,0,.4-6-1.3-7.5-.8-.7-.9-.3-.4,1.5Z"/>
  <path class="cls-1" d="M450,192.51c0,.5,.5,1,1,1,.6,0,1-.5,1-1,0-.6-.4-1-1-1-.5,0-1,.4-1,1Z"/>
  <path class="cls-1" d="M451,196.51c0,.5,.5,1,1,1,.6,0,1-.5,1-1,0-.6-.4-1-1-1-.5,0-1,.4-1,1Z"/>
  <path class="cls-1" d="M452.5,207.21c.8,8,1,9.1,2.1,8,.9-.9-.7-15.7-1.8-15.7-.6,0-.7,2.9-.3,7.7Z"/>
  <path class="cls-1" d="M455,241.01c0,9,.4,14.5,1,14.5s1-5.5,1-14.5-.4-14.5-1-14.5-1,5.5-1,14.5Z"/>
  <path class="cls-1" d="M453.2,266.41c-1.4,10.4-1.5,17.1-.3,17.1,.4,0,1.1-3.7,1.4-8.3,.3-4.5,.9-10.3,1.3-13,.4-2.8,.3-4.7-.3-4.7-.5,0-1.5,4-2.1,8.9Z"/>
  <path class="cls-1" d="M436.9,284.91c-9,6.7-26.5,16.2-31.9,17.2-3.3,.7-5.2,3.4-6.5,9.4-1.6,7.7-11.1,29.5-19,43.5-3.6,6.4-10.6,17.3-22.7,35.4l-1.8,2.6,7.8,7.2c4.2,4,9.2,8,11,8.8,1.7,.9,3.2,2,3.2,2.5,0,1-14.3,11-15.8,11-.4,0-2.6-1.8-4.7-4-7-7.2-8.6-7.2-27,.3-8.8,3.6-21.8,9.1-29,12.2-7.1,3.2-15.2,6.5-18,7.5-2.7,1-10.6,4.5-17.5,7.8-6.9,3.4-17.5,7.5-23.4,9.2-6,1.8-14,4.7-17.9,6.5-6.5,3.1-7.1,3.2-10.2,1.9-3.6-1.5-9.5-6.1-9.5-7.4,0-.5,2-1.8,4.4-2.8,6.2-2.8,26.7-14.6,35.6-20.6,9-6,16.7-13.5,17.6-17.1,.5-2.2-.2-3.5-5.2-8.8-3.3-3.4-10.4-11.8-15.9-18.6s-11.8-14.5-14-17.1c-2.2-2.5-5.3-6.6-7-9-1.6-2.4-5-6.5-7.5-9.1-4-4.3-4.6-4.7-6.1-3.4-.8,.8-2.7,1.5-4,1.4-6.9-.2-33.1,1.3-37.4,2.2-2.7,.6-13.1,1.5-23,2.1-26.7,1.5-26.5,1.5-28.4,3.2-4.7,4.3-8.1,39.2-5,52.6,1.2,5.2,6.3,12.2,11.5,15.7,12.8,8.7,51,22.7,75.7,27.8,3.4,.7,3.4,1.9,0,6.9-1.5,2.3-2.8,4.2-2.8,4.3-.3,.6-21.9-2.9-31.5-5.1-24.7-5.6-54.9-17.9-72.8-29.5-3.4-2.3-6.8-4.1-7.5-4.1-4.5,.1,27.3,18.3,42,24,4.3,1.7,8.7,3.5,9.8,4,5.8,2.4,20.5,6.7,28,8.1,3.3,.6,6.5,1.5,7.1,2s5.1,1.3,10.2,1.9c5,.5,10.4,1.5,11.9,2.2,3.3,1.4,40.4,1.8,55.3,.6,14.3-1.1,29.2-3.3,31.7-4.6,1.2-.7,3-1.2,4-1.2,2.3,0,15-3.8,18.6-5.6,1.6-.8,3.6-1.4,4.5-1.4,1,0,3.4-.9,5.5-2,2-1.1,4.5-2,5.6-2,1,0,2.4-.6,3-1.4,.7-.8,2.7-1.7,4.5-2,1.9-.4,3.9-1.3,4.6-2.1s2.1-1.5,3.1-1.5,2.1-.5,2.4-1c.4-.6,2.1-1.7,3.8-2.5,1.8-.8,4.6-2.4,6.2-3.5,1.7-1.1,3.7-2.3,4.5-2.7,.8-.3,4.9-3,9-5.8,23.5-16.2,21.9-14.8,42.4-37,12.8-13.9,18.9-21.7,28.2-36.5,4.8-7.5,5.3-8.4,6.4-11,1.4-3.4,4-8.9,5.6-12.3,.8-1.6,1.4-3.4,1.4-4,.1-.7,.9-3,2-5.2s1.9-5.2,2-6.7c0-1.4,.6-3.9,1.4-5.5,4.4-8.8,5.1-32.7,1-34-.5-.1-4.8,2.6-9.5,6.1Zm-257.4,71.6c.4,.6-.9,1-3.2,1-2.1,0-6.1,.9-8.8,1.9-6.1,2.3-25.2,3.8-27.5,2.2-2.6-1.9,.4-2.8,10-3,5.5-.1,10-.7,11.7-1.6,3.2-1.7,16.8-2.1,17.8-.5Z"/>
  <path class="cls-1" d="M232.5,302.51c-.3,.5-.1,1,.4,1,.6,0,1.1-.5,1.1-1,0-.6-.2-1-.4-1-.3,0-.8,.4-1.1,1Z"/>
  <path class="cls-1" d="M229,310.11c0,.8,.5,1.2,1,.9,.6-.3,1-1,1-1.6,0-.5-.4-.9-1-.9-.5,0-1,.7-1,1.6Z"/>
  <path class="cls-1" d="M225,318.01c0,.8,.5,1.5,1,1.5,.6,0,1-.7,1-1.5s-.4-1.5-1-1.5c-.5,0-1,.7-1,1.5Z"/>
  <path class="cls-1" d="M221,325.51c0,.5,.5,1,1,1,.6,0,1-.5,1-1,0-.6-.4-1-1-1-.5,0-1,.4-1,1Z"/>
  <path class="cls-1" d="M0,328.91c0,1.8,.7,3.9,1.5,4.6s1.5,2.3,1.5,3.6c0,1.2,.4,2.5,.9,2.8s2.1,3.2,3.7,6.3c1.5,3.2,4.3,7.9,6.1,10.5s3.3,5.1,3.3,5.4c0,.4,1.6,2.9,3.5,5.5,1.9,2.7,3.5,5.2,3.5,5.5,0,.4,1.6,2.6,3.5,5,1.9,2.3,3.5,4.5,3.5,4.9,0,2.7,18.3,21.5,20.9,21.5,1.3,0,1.2-.3-.5-1.8-1.2-.9-5.2-6-9.1-11.2-3.8-5.2-8-10.4-9.1-11.4-1.2-1.1-2.2-2.3-2.2-2.8,0-.4-1.6-3-3.5-5.7-1.9-2.6-3.5-5.1-3.5-5.5,0-.3-1.5-2.7-3.2-5.3-4.2-6.1-5.4-8.1-7.3-11.8-.8-1.7-1.9-3.7-2.4-4.5s-2.1-4-3.6-7c-1.4-3-2.9-6.2-3.4-7s-1.2-2.3-1.5-3.3c-.9-2.9-2.6-1.9-2.6,1.7Z"/>
  <path class="cls-1" d="M217.6,332.11c-.9,2.2,.3,3.2,1.4,1.4,1.2-1.9,1.2-3,.1-3-.5,0-1.2,.7-1.5,1.6Z"/>
  <path class="cls-1" d="M214,339.51c0,.5,.5,1,1,1,.6,0,1-.5,1-1,0-.6-.4-1-1-1-.5,0-1,.4-1,1Z"/>
  <path class="cls-1" d="M339.5,398.21c-1.6,.3-3.4,.9-3.9,1.4-.6,.5-1.8,.9-2.8,.9-2.6,0-9.8,2.3-9.8,3.2,0,1.8,21.3-3.2,22.5-5.3,.6-.9-.6-.9-6-.2Z"/>
  <path class="cls-1" d="M314.3,406.21c-2.4,.9-1.3,2.4,1.5,2.1,1.5-.2,2.6-.8,2.5-1.3-.2-1.2-2.3-1.6-4-.8Z"/>
  <path class="cls-1" d="M308.5,408.51c-.3,.5,.1,1,.9,1,.9,0,1.6-.5,1.6-1,0-.6-.4-1-.9-1-.6,0-1.3,.4-1.6,1Z"/>
  <path class="cls-1" d="M291.4,411.11c-1.8,1.4-1.6,1.5,3,1,2.7-.3,6.2-.6,7.7-.6,1.6,0,2.9-.5,2.9-1,0-1.7-11.4-1.2-13.6,.6Z"/>
  <path class="cls-1" d="M268.5,413.41c-.3,.5,0,1.3,.6,1.6,1.5,1,17.9-.5,17.9-1.6,0-1.2-17.7-1.2-18.5,0Z"/>
</svg>